0
SECTION
2
ENTITIES
0
CIRCLE
8
0
10
-182.415100
20
4.390800
30
275.122803
40
0.200000
0
CIRCLE
8
0
10
-182.415100
20
6.263603
30
275.122803
40
0.200000
0
CIRCLE
8
0
10
-183.645706
20
6.263603
30
275.122803
40
0.200000
0
CIRCLE
8
0
10
-183.645706
20
8.136402
30
275.122803
40
0.200000
0
CIRCLE
8
0
10
-184.876297
20
8.136402
30
275.122803
40
0.200000
0
CIRCLE
8
0
10
-184.466095
20
10.009201
30
275.122803
40
0.200000
0
CIRCLE
8
0
10
-185.696701
20
10.009201
30
275.122803
40
0.200000
0
CIRCLE
8
0
10
-185.286499
20
12.350201
30
275.122803
40
0.200000
0
CIRCLE
8
0
10
-186.517105
20
12.350201
30
275.122803
40
0.200000
0
CIRCLE
8
0
10
-186.927307
20
14.223000
30
275.122803
40
0.200000
0
CIRCLE
8
0
10
-185.696701
20
14.691200
30
275.122803
40
0.200000
0
CIRCLE
8
0
10
-186.106903
20
17.032200
30
275.122803
40
0.200000
0
CIRCLE
8
0
10
-187.337494
20
16.564003
30
275.122803
40
0.200000
0
CIRCLE
8
0
10
-187.337494
20
18.905003
30
275.122803
40
0.200000
0
CIRCLE
8
0
10
-186.517105
20
19.373203
30
275.122803
40
0.200000
0
CIRCLE
8
0
10
-186.517105
20
21.246002
30
275.122803
40
0.200000
0
CIRCLE
8
0
10
-187.337494
20
21.714203
30
275.122803
40
0.200000
0
CIRCLE
8
0
10
-187.337494
20
24.055202
30
275.122803
40
0.200000
0
CIRCLE
8
0
10
-186.517105
20
23.118801
30
275.122803
40
0.200000
0
CIRCLE
8
0
10
-184.876297
20
22.182400
30
275.122803
40
0.200000
0
CIRCLE
8
0
10
-183.235504
20
21.246002
30
275.122803
40
0.200000
0
CIRCLE
8
0
10
-181.184494
20
20.309601
30
275.122803
40
0.200000
0
CIRCLE
8
0
10
-179.133499
20
19.841400
30
275.122803
40
0.200000
0
CIRCLE
8
0
10
-177.492706
20
19.373203
30
275.122803
40
0.200000
0
CIRCLE
8
0
10
-175.851898
20
19.373203
30
275.122803
40
0.200000
0
CIRCLE
8
0
10
-175.851898
20
21.246002
30
275.122803
40
0.200000
0
CIRCLE
8
0
10
-175.441696
20
23.587002
30
275.122803
40
0.200000
0
CIRCLE
8
0
10
-174.211105
20
21.714203
30
275.122803
40
0.200000
0
CIRCLE
8
0
10
-173.800903
20
19.841400
30
275.122803
40
0.200000
0
CIRCLE
8
0
10
-173.800903
20
17.968601
30
275.122803
40
0.200000
0
CIRCLE
8
0
10
-175.441696
20
17.968601
30
275.122803
40
0.200000
0
CIRCLE
8
0
10
-177.492706
20
17.500401
30
275.122803
40
0.200000
0
CIRCLE
8
0
10
-178.313095
20
17.968601
30
275.122803
40
0.200000
0
CIRCLE
8
0
10
-179.133499
20
17.500401
30
275.122803
40
0.200000
0
CIRCLE
8
0
10
-181.184494
20
17.500401
30
275.122803
40
0.200000
0
CIRCLE
8
0
10
-182.415100
20
17.032200
30
275.122803
40
0.200000
0
CIRCLE
8
0
10
-183.645706
20
14.691200
30
275.122803
40
0.200000
0
CIRCLE
8
0
10
-183.645706
20
12.818401
30
275.122803
40
0.200000
0
CIRCLE
8
0
10
-183.645706
20
10.009201
30
275.122803
40
0.200000
0
CIRCLE
8
0
10
-182.825302
20
8.136402
30
275.122803
40
0.200000
0
CIRCLE
8
0
10
-180.774292
20
7.668201
30
275.122803
40
0.200000
0
CIRCLE
8
0
10
-179.133499
20
7.668201
30
275.122803
40
0.200000
0
CIRCLE
8
0
10
-177.902893
20
9.541000
30
275.122803
40
0.200000
0
CIRCLE
8
0
10
-179.543701
20
13.754803
30
275.122803
40
0.200000
0
CIRCLE
8
0
10
-179.133499
20
16.095802
30
275.122803
40
0.200000
0
CIRCLE
8
0
10
-179.133499
20
11.413803
30
275.122803
40
0.200000
0
CIRCLE
8
0
10
-177.082504
20
7.668201
30
275.122803
40
0.200000
0
CIRCLE
8
0
10
-175.441696
20
8.136402
30
275.122803
40
0.200000
0
CIRCLE
8
0
10
-175.441696
20
6.731800
30
275.122803
40
0.200000
0
CIRCLE
8
0
10
-173.800903
20
6.263603
30
275.122803
40
0.200000
0
CIRCLE
8
0
10
-173.800903
20
8.136402
30
275.122803
40
0.200000
0
CIRCLE
8
0
10
-171.749893
20
8.136402
30
275.122803
40
0.200000
0
CIRCLE
8
0
10
-171.749893
20
6.731800
30
275.122803
40
0.200000
0
CIRCLE
8
0
10
-169.698898
20
8.136402
30
275.122803
40
0.200000
0
CIRCLE
8
0
10
-168.468292
20
8.604603
30
275.122803
40
0.200000
0
CIRCLE
8
0
10
-168.878494
20
10.009201
30
275.122803
40
0.200000
0
CIRCLE
8
0
10
-168.058105
20
12.350201
30
275.122803
40
0.200000
0
CIRCLE
8
0
10
-168.058105
20
14.223000
30
275.122803
40
0.200000
0
CIRCLE
8
0
10
-168.468292
20
17.032200
30
275.122803
40
0.200000
0
CIRCLE
8
0
10
-169.288696
20
18.905003
30
275.122803
40
0.200000
0
CIRCLE
8
0
10
-170.519302
20
20.309601
30
275.122803
40
0.200000
0
CIRCLE
8
0
10
-168.468292
20
20.777802
30
275.122803
40
0.200000
0
CIRCLE
8
0
10
-166.827499
20
21.714203
30
275.122803
40
0.200000
0
CIRCLE
8
0
10
-164.776505
20
22.650600
30
275.122803
40
0.200000
0
CIRCLE
8
0
10
-163.135696
20
23.587002
30
275.122803
40
0.200000
0
CIRCLE
8
0
10
-161.905106
20
24.991600
30
275.122803
40
0.200000
0
CIRCLE
8
0
10
-161.084702
20
25.928001
30
275.122803
40
0.200000
0
CIRCLE
8
0
10
-160.674500
20
23.587002
30
275.122803
40
0.200000
0
CIRCLE
8
0
10
-161.494904
20
23.587002
30
275.122803
40
0.200000
0
CIRCLE
8
0
10
-161.494904
20
21.246002
30
275.122803
40
0.200000
0
CIRCLE
8
0
10
-160.264297
20
21.246002
30
275.122803
40
0.200000
0
CIRCLE
8
0
10
-160.264297
20
18.905003
30
275.122803
40
0.200000
0
CIRCLE
8
0
10
-161.494904
20
18.436802
30
275.122803
40
0.200000
0
CIRCLE
8
0
10
-161.905106
20
16.095802
30
275.122803
40
0.200000
0
CIRCLE
8
0
10
-160.264297
20
16.564003
30
275.122803
40
0.200000
0
CIRCLE
8
0
10
-160.674500
20
14.223000
30
275.122803
40
0.200000
0
CIRCLE
8
0
10
-161.905106
20
13.754803
30
275.122803
40
0.200000
0
CIRCLE
8
0
10
-161.084702
20
11.882000
30
275.122803
40
0.200000
0
CIRCLE
8
0
10
-162.725494
20
11.413803
30
275.122803
40
0.200000
0
CIRCLE
8
0
10
-161.905106
20
9.541000
30
275.122803
40
0.200000
0
CIRCLE
8
0
10
-162.725494
20
7.200001
30
275.122803
40
0.200000
0
CIRCLE
8
0
10
-163.956100
20
5.795403
30
275.122803
40
0.200000
0
CIRCLE
8
0
10
-165.596893
20
5.327202
30
275.122803
40
0.200000
0
CIRCLE
8
0
10
-167.647903
20
4.859001
30
275.122803
40
0.200000
0
CIRCLE
8
0
10
-169.698898
20
4.390800
30
275.122803
40
0.200000
0
CIRCLE
8
0
10
-171.339706
20
3.922600
30
275.122803
40
0.200000
0
CIRCLE
8
0
10
-172.980499
20
3.922600
30
275.122803
40
0.200000
0
CIRCLE
8
0
10
-175.031494
20
3.922600
30
275.122803
40
0.200000
0
CIRCLE
8
0
10
-176.672302
20
3.922600
30
275.122803
40
0.200000
0
CIRCLE
8
0
10
-178.723297
20
3.922600
30
275.122803
40
0.200000
0
CIRCLE
8
0
10
-180.774292
20
4.390800
30
275.122803
40
0.200000
0
CIRCLE
8
0
10
-180.774292
20
5.795403
30
275.122803
40
0.200000
0
CIRCLE
8
0
10
-178.723297
20
5.327202
30
275.122803
40
0.200000
0
CIRCLE
8
0
10
-177.082504
20
5.327202
30
275.122803
40
0.200000
0
CIRCLE
8
0
10
-175.441696
20
5.327202
30
275.122803
40
0.200000
0
CIRCLE
8
0
10
-173.390701
20
5.327202
30
275.122803
40
0.200000
0
CIRCLE
8
0
10
-171.339706
20
5.327202
30
275.122803
40
0.200000
0
CIRCLE
8
0
10
-169.698898
20
5.795403
30
275.122803
40
0.200000
0
CIRCLE
8
0
10
-168.058105
20
6.263603
30
275.122803
40
0.200000
0
CIRCLE
8
0
10
-166.417297
20
6.731800
30
275.122803
40
0.200000
0
CIRCLE
8
0
10
-166.417297
20
8.604603
30
275.122803
40
0.200000
0
CIRCLE
8
0
10
-164.366302
20
7.668201
30
275.122803
40
0.200000
0
CIRCLE
8
0
10
-164.776505
20
9.072800
30
275.122803
40
0.200000
0
CIRCLE
8
0
10
-163.545898
20
9.541000
30
275.122803
40
0.200000
0
CIRCLE
8
0
10
-163.545898
20
10.945602
30
275.122803
40
0.200000
0
CIRCLE
8
0
10
-163.545898
20
13.754803
30
275.122803
40
0.200000
0
CIRCLE
8
0
10
-163.956100
20
15.627602
30
275.122803
40
0.200000
0
CIRCLE
8
0
10
-164.776505
20
17.968601
30
275.122803
40
0.200000
0
CIRCLE
8
0
10
-166.417297
20
18.436802
30
275.122803
40
0.200000
0
CIRCLE
8
0
10
-168.058105
20
18.436802
30
275.122803
40
0.200000
0
CIRCLE
8
0
10
-169.698898
20
17.968601
30
275.122803
40
0.200000
0
CIRCLE
8
0
10
-171.749893
20
17.968601
30
275.122803
40
0.200000
0
CIRCLE
8
0
10
-172.160095
20
19.841400
30
275.122803
40
0.200000
0
CIRCLE
8
0
10
-171.749893
20
21.714203
30
275.122803
40
0.200000
0
CIRCLE
8
0
10
-172.980499
20
24.055202
30
275.122803
40
0.200000
0
CIRCLE
8
0
10
-171.339706
20
25.928001
30
275.122803
40
0.200000
0
CIRCLE
8
0
10
-172.160095
20
29.205402
30
275.122803
40
0.200000
0
CIRCLE
8
0
10
-171.339706
20
31.078201
30
275.122803
40
0.200000
0
CIRCLE
8
0
10
-169.698898
20
32.951000
30
275.122803
40
0.200000
0
CIRCLE
8
0
10
-168.058105
20
33.887402
30
275.122803
40
0.200000
0
CIRCLE
8
0
10
-166.007095
20
34.823803
30
275.122803
40
0.200000
0
CIRCLE
8
0
10
-164.366302
20
34.823803
30
275.122803
40
0.200000
0
CIRCLE
8
0
10
-162.315292
20
34.823803
30
275.122803
40
0.200000
0
CIRCLE
8
0
10
-163.135696
20
37.633003
30
275.122803
40
0.200000
0
CIRCLE
8
0
10
-164.776505
20
39.505802
30
275.122803
40
0.200000
0
CIRCLE
8
0
10
-166.417297
20
40.442200
30
275.122803
40
0.200000
0
CIRCLE
8
0
10
-168.468292
20
39.973999
30
275.122803
40
0.200000
0
CIRCLE
8
0
10
-170.109100
20
38.569401
30
275.122803
40
0.200000
0
CIRCLE
8
0
10
-171.339706
20
36.228401
30
275.122803
40
0.200000
0
CIRCLE
8
0
10
-171.749893
20
33.887402
30
275.122803
40
0.200000
0
CIRCLE
8
0
10
-173.390701
20
32.014603
30
275.122803
40
0.200000
0
CIRCLE
8
0
10
-175.441696
20
31.546402
30
275.122803
40
0.200000
0
CIRCLE
8
0
10
-176.262100
20
29.205402
30
275.122803
40
0.200000
0
CIRCLE
8
0
10
-176.672302
20
25.928001
30
275.122803
40
0.200000
0
CIRCLE
8
0
10
-177.902893
20
30.610001
30
275.122803
40
0.200000
0
CIRCLE
8
0
10
-179.543701
20
32.014603
30
275.122803
40
0.200000
0
CIRCLE
8
0
10
-181.184494
20
33.419201
30
275.122803
40
0.200000
0
CIRCLE
8
0
10
-182.825302
20
34.355602
30
275.122803
40
0.200000
0
CIRCLE
8
0
10
-184.876297
20
34.823803
30
275.122803
40
0.200000
0
CIRCLE
8
0
10
-186.517105
20
34.823803
30
275.122803
40
0.200000
0
CIRCLE
8
0
10
-185.696701
20
37.164803
30
275.122803
40
0.200000
0
CIRCLE
8
0
10
-184.055893
20
39.037601
30
275.122803
40
0.200000
0
CIRCLE
8
0
10
-182.004898
20
39.973999
30
275.122803
40
0.200000
0
CIRCLE
8
0
10
-178.313095
20
38.101204
30
275.122803
40
0.200000
0
CIRCLE
8
0
10
-177.082504
20
32.951000
30
275.122803
40
0.200000
0
CIRCLE
8
0
10
-177.082504
20
35.760201
30
275.122803
40
0.200000
0
CIRCLE
8
0
10
-180.364105
20
39.505802
30
275.122803
40
0.200000
0
CIRCLE
8
0
10
-180.364105
20
44.187801
30
275.122803
40
0.200000
0
CIRCLE
8
0
10
-178.313095
20
43.719601
30
275.122803
40
0.200000
0
CIRCLE
8
0
10
-176.672302
20
43.719601
30
275.122803
40
0.200000
0
CIRCLE
8
0
10
-174.621292
20
43.719601
30
275.122803
40
0.200000
0
CIRCLE
8
0
10
-172.980499
20
43.719601
30
275.122803
40
0.200000
0
CIRCLE
8
0
10
-170.929504
20
44.187801
30
275.122803
40
0.200000
0
CIRCLE
8
0
10
-168.878494
20
44.656002
30
275.122803
40
0.200000
0
CIRCLE
8
0
10
-167.237701
20
45.124199
30
275.122803
40
0.200000
0
CIRCLE
8
0
10
-165.596893
20
45.592400
30
275.122803
40
0.200000
0
CIRCLE
8
0
10
-164.366302
20
47.465202
30
275.122803
40
0.200000
0
CIRCLE
8
0
10
-163.135696
20
49.338001
30
275.122803
40
0.200000
0
CIRCLE
8
0
10
-163.956100
20
51.210800
30
275.122803
40
0.200000
0
CIRCLE
8
0
10
-162.315292
20
51.679001
30
275.122803
40
0.200000
0
CIRCLE
8
0
10
-163.545898
20
53.551804
30
275.122803
40
0.200000
0
CIRCLE
8
0
10
-161.905106
20
54.020000
30
275.122803
40
0.200000
0
CIRCLE
8
0
10
-161.905106
20
56.361000
30
275.122803
40
0.200000
0
CIRCLE
8
0
10
-163.135696
20
55.892799
30
275.122803
40
0.200000
0
CIRCLE
8
0
10
-162.725494
20
58.233803
30
275.122803
40
0.200000
0
CIRCLE
8
0
10
-161.494904
20
58.702003
30
275.122803
40
0.200000
0
CIRCLE
8
0
10
-161.494904
20
61.042999
30
275.122803
40
0.200000
0
CIRCLE
8
0
10
-162.725494
20
61.042999
30
275.122803
40
0.200000
0
CIRCLE
8
0
10
-163.135696
20
63.384003
30
275.122803
40
0.200000
0
CIRCLE
8
0
10
-161.905106
20
63.384003
30
275.122803
40
0.200000
0
CIRCLE
8
0
10
-162.315292
20
65.724998
30
275.122803
40
0.200000
0
CIRCLE
8
0
10
-163.135696
20
64.788605
30
275.122803
40
0.200000
0
CIRCLE
8
0
10
-164.776505
20
63.384003
30
275.122803
40
0.200000
0
CIRCLE
8
0
10
-166.007095
20
62.447601
30
275.122803
40
0.200000
0
CIRCLE
8
0
10
-168.058105
20
61.511200
30
275.122803
40
0.200000
0
CIRCLE
8
0
10
-169.698898
20
60.574802
30
275.122803
40
0.200000
0
CIRCLE
8
0
10
-171.749893
20
60.106602
30
275.122803
40
0.200000
0
CIRCLE
8
0
10
-170.519302
20
58.702003
30
275.122803
40
0.200000
0
CIRCLE
8
0
10
-169.698898
20
58.233803
30
275.122803
40
0.200000
0
CIRCLE
8
0
10
-167.647903
20
58.233803
30
275.122803
40
0.200000
0
CIRCLE
8
0
10
-166.007095
20
57.765602
30
275.122803
40
0.200000
0
CIRCLE
8
0
10
-165.186707
20
55.892799
30
275.122803
40
0.200000
0
CIRCLE
8
0
10
-165.186707
20
53.551804
30
275.122803
40
0.200000
0
CIRCLE
8
0
10
-165.186707
20
50.742599
30
275.122803
40
0.200000
0
CIRCLE
8
0
10
-165.186707
20
49.338001
30
275.122803
40
0.200000
0
CIRCLE
8
0
10
-166.417297
20
48.869801
30
275.122803
40
0.200000
0
CIRCLE
8
0
10
-166.007095
20
46.997002
30
275.122803
40
0.200000
0
CIRCLE
8
0
10
-167.647903
20
48.401604
30
275.122803
40
0.200000
0
CIRCLE
8
0
10
-167.647903
20
46.528801
30
275.122803
40
0.200000
0
CIRCLE
8
0
10
-169.698898
20
46.060600
30
275.122803
40
0.200000
0
CIRCLE
8
0
10
-171.339706
20
45.592400
30
275.122803
40
0.200000
0
CIRCLE
8
0
10
-172.980499
20
45.592400
30
275.122803
40
0.200000
0
CIRCLE
8
0
10
-172.980499
20
46.997002
30
275.122803
40
0.200000
0
CIRCLE
8
0
10
-175.441696
20
46.528801
30
275.122803
40
0.200000
0
CIRCLE
8
0
10
-175.031494
20
45.124199
30
275.122803
40
0.200000
0
CIRCLE
8
0
10
-176.672302
20
45.124199
30
275.122803
40
0.200000
0
CIRCLE
8
0
10
-178.723297
20
45.124199
30
275.122803
40
0.200000
0
CIRCLE
8
0
10
-180.364105
20
45.592400
30
275.122803
40
0.200000
0
CIRCLE
8
0
10
-182.004898
20
46.060600
30
275.122803
40
0.200000
0
CIRCLE
8
0
10
-182.004898
20
44.187801
30
275.122803
40
0.200000
0
CIRCLE
8
0
10
-184.055893
20
44.656002
30
275.122803
40
0.200000
0
CIRCLE
8
0
10
-183.645706
20
46.528801
30
275.122803
40
0.200000
0
CIRCLE
8
0
10
-185.286499
20
46.060600
30
275.122803
40
0.200000
0
CIRCLE
8
0
10
-185.286499
20
48.401604
30
275.122803
40
0.200000
0
CIRCLE
8
0
10
-186.517105
20
47.933403
30
275.122803
40
0.200000
0
CIRCLE
8
0
10
-185.696701
20
50.274399
30
275.122803
40
0.200000
0
CIRCLE
8
0
10
-187.337494
20
50.274399
30
275.122803
40
0.200000
0
CIRCLE
8
0
10
-186.517105
20
52.615402
30
275.122803
40
0.200000
0
CIRCLE
8
0
10
-188.157898
20
52.147202
30
275.122803
40
0.200000
0
CIRCLE
8
0
10
-188.568100
20
54.488201
30
275.122803
40
0.200000
0
CIRCLE
8
0
10
-186.927307
20
54.956402
30
275.122803
40
0.200000
0
CIRCLE
8
0
10
-187.337494
20
57.297401
30
275.122803
40
0.200000
0
CIRCLE
8
0
10
-188.978302
20
56.829201
30
275.122803
40
0.200000
0
CIRCLE
8
0
10
-188.568100
20
59.170200
30
275.122803
40
0.200000
0
CIRCLE
8
0
10
-187.747696
20
59.638401
30
275.122803
40
0.200000
0
CIRCLE
8
0
10
-187.747696
20
61.511200
30
275.122803
40
0.200000
0
CIRCLE
8
0
10
-188.568100
20
61.511200
30
275.122803
40
0.200000
0
CIRCLE
8
0
10
-188.568100
20
64.320404
30
275.122803
40
0.200000
0
CIRCLE
8
0
10
-187.747696
20
63.384003
30
275.122803
40
0.200000
0
CIRCLE
8
0
10
-186.517105
20
62.447601
30
275.122803
40
0.200000
0
CIRCLE
8
0
10
-184.466095
20
61.511200
30
275.122803
40
0.200000
0
CIRCLE
8
0
10
-182.825302
20
60.574802
30
275.122803
40
0.200000
0
CIRCLE
8
0
10
-180.774292
20
60.106602
30
275.122803
40
0.200000
0
CIRCLE
8
0
10
-179.133499
20
59.638401
30
275.122803
40
0.200000
0
CIRCLE
8
0
10
-177.492706
20
61.511200
30
275.122803
40
0.200000
0
CIRCLE
8
0
10
-177.082504
20
59.638401
30
275.122803
40
0.200000
0
CIRCLE
8
0
10
-175.441696
20
59.638401
30
275.122803
40
0.200000
0
CIRCLE
8
0
10
-175.031494
20
57.765602
30
275.122803
40
0.200000
0
CIRCLE
8
0
10
-176.672302
20
57.765602
30
275.122803
40
0.200000
0
CIRCLE
8
0
10
-178.723297
20
57.765602
30
275.122803
40
0.200000
0
CIRCLE
8
0
10
-179.953903
20
58.233803
30
275.122803
40
0.200000
0
CIRCLE
8
0
10
-180.774292
20
57.765602
30
275.122803
40
0.200000
0
CIRCLE
8
0
10
-182.415100
20
57.297401
30
275.122803
40
0.200000
0
CIRCLE
8
0
10
-184.055893
20
56.829201
30
275.122803
40
0.200000
0
CIRCLE
8
0
10
-184.876297
20
54.956402
30
275.122803
40
0.200000
0
CIRCLE
8
0
10
-184.876297
20
52.615402
30
275.122803
40
0.200000
0
CIRCLE
8
0
10
-184.876297
20
50.274399
30
275.122803
40
0.200000
0
CIRCLE
8
0
10
-184.055893
20
48.401604
30
275.122803
40
0.200000
0
CIRCLE
8
0
10
-182.415100
20
47.465202
30
275.122803
40
0.200000
0
CIRCLE
8
0
10
-180.364105
20
47.933403
30
275.122803
40
0.200000
0
CIRCLE
8
0
10
-179.543701
20
48.869801
30
275.122803
40
0.200000
0
CIRCLE
8
0
10
-180.774292
20
53.551804
30
275.122803
40
0.200000
0
CIRCLE
8
0
10
-180.774292
20
56.361000
30
275.122803
40
0.200000
0
CIRCLE
8
0
10
-180.364105
20
51.210800
30
275.122803
40
0.200000
0
CIRCLE
8
0
10
-178.723297
20
47.933403
30
275.122803
40
0.200000
0
CIRCLE
8
0
10
-177.082504
20
47.933403
30
275.122803
40
0.200000
0
CIRCLE
8
0
10
-176.672302
20
46.528801
30
275.122803
40
0.200000
0
CIRCLE
8
0
10
-175.031494
20
47.933403
30
275.122803
40
0.200000
0
CIRCLE
8
0
10
-173.390701
20
47.933403
30
275.122803
40
0.200000
0
CIRCLE
8
0
10
-171.339706
20
48.401604
30
275.122803
40
0.200000
0
CIRCLE
8
0
10
-169.698898
20
48.401604
30
275.122803
40
0.200000
0
CIRCLE
8
0
10
-170.109100
20
49.806202
30
275.122803
40
0.200000
0
CIRCLE
8
0
10
-169.698898
20
52.147202
30
275.122803
40
0.200000
0
CIRCLE
8
0
10
-169.288696
20
54.020000
30
275.122803
40
0.200000
0
CIRCLE
8
0
10
-169.698898
20
56.829201
30
275.122803
40
0.200000
0
CIRCLE
8
0
10
-171.339706
20
58.233803
30
275.122803
40
0.200000
0
CIRCLE
8
0
10
-172.980499
20
58.233803
30
275.122803
40
0.200000
0
CIRCLE
8
0
10
-173.390701
20
60.106602
30
275.122803
40
0.200000
0
CIRCLE
8
0
10
-173.390701
20
61.511200
30
275.122803
40
0.200000
0
CIRCLE
8
0
10
-175.441696
20
61.979401
30
275.122803
40
0.200000
0
CIRCLE
8
0
10
-174.211105
20
64.320404
30
275.122803
40
0.200000
0
CIRCLE
8
0
10
-176.672302
20
64.788605
30
275.122803
40
0.200000
0
CIRCLE
8
0
10
-177.902893
20
67.129601
30
275.122803
40
0.200000
0
CIRCLE
8
0
10
-179.953903
20
69.002403
30
275.122803
40
0.200000
0
CIRCLE
8
0
10
-181.594696
20
66.661400
30
275.122803
40
0.200000
0
CIRCLE
8
0
10
-184.055893
20
66.193199
30
275.122803
40
0.200000
0
CIRCLE
8
0
10
-185.696701
20
68.066002
30
275.122803
40
0.200000
0
CIRCLE
8
0
10
-186.517105
20
71.343399
30
275.122803
40
0.200000
0
CIRCLE
8
0
10
-186.106903
20
73.216202
30
275.122803
40
0.200000
0
CIRCLE
8
0
10
-184.055893
20
73.216202
30
275.122803
40
0.200000
0
CIRCLE
8
0
10
-186.927307
20
74.620804
30
275.122803
40
0.200000
0
CIRCLE
8
0
10
-186.517105
20
77.430000
30
275.122803
40
0.200000
0
CIRCLE
8
0
10
-184.876297
20
79.771004
30
275.122803
40
0.200000
0
CIRCLE
8
0
10
-182.415100
20
80.239204
30
275.122803
40
0.200000
0
CIRCLE
8
0
10
-180.774292
20
78.366402
30
275.122803
40
0.200000
0
CIRCLE
8
0
10
-179.953903
20
75.557205
30
275.122803
40
0.200000
0
CIRCLE
8
0
10
-182.004898
20
73.216202
30
275.122803
40
0.200000
0
CIRCLE
8
0
10
-180.364105
20
73.216202
30
275.122803
40
0.200000
0
CIRCLE
8
0
10
-179.953903
20
72.279800
30
275.122803
40
0.200000
0
CIRCLE
8
0
10
-177.492706
20
70.406998
30
275.122803
40
0.200000
0
CIRCLE
8
0
10
-176.262100
20
72.748001
30
275.122803
40
0.200000
0
CIRCLE
8
0
10
-174.211105
20
72.748001
30
275.122803
40
0.200000
0
CIRCLE
8
0
10
-172.980499
20
69.470604
30
275.122803
40
0.200000
0
CIRCLE
8
0
10
-172.570297
20
66.193199
30
275.122803
40
0.200000
0
CIRCLE
8
0
10
-170.519302
20
68.534203
30
275.122803
40
0.200000
0
CIRCLE
8
0
10
-168.468292
20
66.193199
30
275.122803
40
0.200000
0
CIRCLE
8
0
10
-166.417297
20
66.661400
30
275.122803
40
0.200000
0
CIRCLE
8
0
10
-165.186707
20
69.002403
30
275.122803
40
0.200000
0
CIRCLE
8
0
10
-164.366302
20
71.811600
30
275.122803
40
0.200000
0
CIRCLE
8
0
10
-164.366302
20
75.089005
30
275.122803
40
0.200000
0
CIRCLE
8
0
10
-165.186707
20
77.898201
30
275.122803
40
0.200000
0
CIRCLE
8
0
10
-165.186707
20
73.216202
30
275.122803
40
0.200000
0
CIRCLE
8
0
10
-166.827499
20
73.216202
30
275.122803
40
0.200000
0
CIRCLE
8
0
10
-168.878494
20
73.216202
30
275.122803
40
0.200000
0
CIRCLE
8
0
10
-170.929504
20
72.748001
30
275.122803
40
0.200000
0
CIRCLE
8
0
10
-171.339706
20
71.343399
30
275.122803
40
0.200000
0
CIRCLE
8
0
10
-171.749893
20
74.620804
30
275.122803
40
0.200000
0
CIRCLE
8
0
10
-170.929504
20
77.898201
30
275.122803
40
0.200000
0
CIRCLE
8
0
10
-169.698898
20
80.239204
30
275.122803
40
0.200000
0
CIRCLE
8
0
10
-167.237701
20
80.239204
30
275.122803
40
0.200000
0
CIRCLE
8
0
10
-165.596893
20
84.921204
30
275.122803
40
0.200000
0
CIRCLE
8
0
10
-162.315292
20
83.516602
30
275.122803
40
0.200000
0
CIRCLE
8
0
10
-159.443893
20
80.707397
30
275.122803
40
0.200000
0
CIRCLE
8
0
10
-156.982697
20
77.430000
30
275.122803
40
0.200000
0
CIRCLE
8
0
10
-155.341904
20
72.748001
30
275.122803
40
0.200000
0
CIRCLE
8
0
10
-154.521500
20
68.534203
30
275.122803
40
0.200000
0
CIRCLE
8
0
10
-154.111298
20
63.852200
30
275.122803
40
0.200000
0
CIRCLE
8
0
10
-154.931702
20
58.702003
30
275.122803
40
0.200000
0
CIRCLE
8
0
10
-155.341904
20
54.488201
30
275.122803
40
0.200000
0
CIRCLE
8
0
10
-156.982697
20
49.806202
30
275.122803
40
0.200000
0
CIRCLE
8
0
10
-154.521500
20
46.997002
30
275.122803
40
0.200000
0
CIRCLE
8
0
10
-152.060303
20
43.719601
30
275.122803
40
0.200000
0
CIRCLE
8
0
10
-150.419495
20
39.505802
30
275.122803
40
0.200000
0
CIRCLE
8
0
10
-149.599106
20
35.292000
30
275.122803
40
0.200000
0
CIRCLE
8
0
10
-149.188904
20
30.141800
30
275.122803
40
0.200000
0
CIRCLE
8
0
10
-149.188904
20
25.459801
30
275.122803
40
0.200000
0
CIRCLE
8
0
10
-150.009308
20
20.777802
30
275.122803
40
0.200000
0
CIRCLE
8
0
10
-150.829697
20
16.095802
30
275.122803
40
0.200000
0
CIRCLE
8
0
10
-152.470505
20
11.882000
30
275.122803
40
0.200000
0
CIRCLE
8
0
10
-154.521500
20
8.136402
30
275.122803
40
0.200000
0
CIRCLE
8
0
10
-156.162292
20
5.327202
30
275.122803
40
0.200000
0
CIRCLE
8
0
10
-158.623505
20
2.986198
30
275.122803
40
0.200000
0
CIRCLE
8
0
10
-160.674500
20
2.049805
30
275.122803
40
0.200000
0
CIRCLE
8
0
10
-163.135696
20
1.113403
30
275.122803
40
0.200000
0
CIRCLE
8
0
10
-165.596893
20
0.645203
30
275.122803
40
0.200000
0
CIRCLE
8
0
10
-168.878494
20
0.177002
30
275.122803
40
0.200000
0
CIRCLE
8
0
10
-172.160095
20
0.177002
30
275.122803
40
0.200000
0
CIRCLE
8
0
10
-175.441696
20
0.177002
30
275.122803
40
0.200000
0
CIRCLE
8
0
10
-178.313095
20
0.177002
30
275.122803
40
0.200000
0
CIRCLE
8
0
10
-180.774292
20
0.177002
30
275.122803
40
0.200000
0
CIRCLE
8
0
10
-183.645706
20
1.113403
30
275.122803
40
0.200000
0
CIRCLE
8
0
10
-186.517105
20
2.049805
30
275.122803
40
0.200000
0
CIRCLE
8
0
10
-189.388504
20
3.454399
30
275.122803
40
0.200000
0
CIRCLE
8
0
10
-191.439499
20
4.859001
30
275.122803
40
0.200000
0
CIRCLE
8
0
10
-193.490494
20
7.200001
30
275.122803
40
0.200000
0
CIRCLE
8
0
10
-195.541504
20
11.413803
30
275.122803
40
0.200000
0
CIRCLE
8
0
10
-196.772095
20
15.627602
30
275.122803
40
0.200000
0
CIRCLE
8
0
10
-198.002701
20
20.309601
30
275.122803
40
0.200000
0
CIRCLE
8
0
10
-198.823105
20
24.991600
30
275.122803
40
0.200000
0
CIRCLE
8
0
10
-199.233307
20
29.673603
30
275.122803
40
0.200000
0
CIRCLE
8
0
10
-198.002701
20
34.355602
30
275.122803
40
0.200000
0
CIRCLE
8
0
10
-196.361893
20
38.101204
30
275.122803
40
0.200000
0
CIRCLE
8
0
10
-193.490494
20
41.378601
30
275.122803
40
0.200000
0
CIRCLE
8
0
10
-192.259903
20
44.656002
30
275.122803
40
0.200000
0
CIRCLE
8
0
10
-194.310898
20
48.401604
30
275.122803
40
0.200000
0
CIRCLE
8
0
10
-195.951691
20
53.083603
30
275.122803
40
0.200000
0
CIRCLE
8
0
10
-196.772095
20
57.297401
30
275.122803
40
0.200000
0
CIRCLE
8
0
10
-197.182297
20
62.447601
30
275.122803
40
0.200000
0
CIRCLE
8
0
10
-196.772095
20
67.129601
30
275.122803
40
0.200000
0
CIRCLE
8
0
10
-195.951691
20
71.811600
30
275.122803
40
0.200000
0
CIRCLE
8
0
10
-194.310898
20
75.557205
30
275.122803
40
0.200000
0
CIRCLE
8
0
10
-192.259903
20
79.771004
30
275.122803
40
0.200000
0
CIRCLE
8
0
10
-189.798706
20
82.580200
30
275.122803
40
0.200000
0
CIRCLE
8
0
10
-188.978302
20
86.325806
30
275.122803
40
0.200000
0
CIRCLE
8
0
10
-190.619095
20
90.539597
30
275.122803
40
0.200000
0
CIRCLE
8
0
10
-191.849701
20
94.753403
30
275.122803
40
0.200000
0
CIRCLE
8
0
10
-192.670105
20
99.435402
30
275.122803
40
0.200000
0
CIRCLE
8
0
10
-192.670105
20
104.117401
30
275.122803
40
0.200000
0
CIRCLE
8
0
10
-192.259903
20
109.267601
30
275.122803
40
0.200000
0
CIRCLE
8
0
10
-191.849701
20
113.949600
30
275.122803
40
0.200000
0
CIRCLE
8
0
10
-190.208893
20
117.695206
30
275.122803
40
0.200000
0
CIRCLE
8
0
10
-187.747696
20
121.440796
30
275.122803
40
0.200000
0
CIRCLE
8
0
10
-184.466095
20
123.313599
30
275.122803
40
0.200000
0
CIRCLE
8
0
10
-181.184494
20
125.186401
30
275.122803
40
0.200000
0
CIRCLE
8
0
10
-178.723297
20
127.995605
30
275.122803
40
0.200000
0
CIRCLE
8
0
10
-176.262100
20
131.741211
30
275.122803
40
0.200000
0
CIRCLE
8
0
10
-177.902893
20
135.018600
30
275.122803
40
0.200000
0
CIRCLE
8
0
10
-175.031494
20
132.677612
30
275.122803
40
0.200000
0
CIRCLE
8
0
10
-174.211105
20
128.463806
30
275.122803
40
0.200000
0
CIRCLE
8
0
10
-172.160095
20
124.718201
30
275.122803
40
0.200000
0
CIRCLE
8
0
10
-168.878494
20
123.313599
30
275.122803
40
0.200000
0
CIRCLE
8
0
10
-166.007095
20
120.972603
30
275.122803
40
0.200000
0
CIRCLE
8
0
10
-163.956100
20
116.758804
30
275.122803
40
0.200000
0
CIRCLE
8
0
10
-162.725494
20
112.544998
30
275.122803
40
0.200000
0
CIRCLE
8
0
10
-162.315292
20
107.863007
30
275.122803
40
0.200000
0
CIRCLE
8
0
10
-162.315292
20
103.181000
30
275.122803
40
0.200000
0
CIRCLE
8
0
10
-162.725494
20
98.499001
30
275.122803
40
0.200000
0
CIRCLE
8
0
10
-163.956100
20
93.817001
30
275.122803
40
0.200000
0
CIRCLE
8
0
10
-165.186707
20
89.603203
30
275.122803
40
0.200000
0
CIRCLE
8
0
10
-166.827499
20
91.007797
30
275.122803
40
0.200000
0
CIRCLE
8
0
10
-167.647903
20
92.880600
30
275.122803
40
0.200000
0
CIRCLE
8
0
10
-166.007095
20
92.880600
30
275.122803
40
0.200000
0
CIRCLE
8
0
10
-166.827499
20
95.221603
30
275.122803
40
0.200000
0
CIRCLE
8
0
10
-165.596893
20
95.221603
30
275.122803
40
0.200000
0
CIRCLE
8
0
10
-165.186707
20
97.562599
30
275.122803
40
0.200000
0
CIRCLE
8
0
10
-166.417297
20
97.094398
30
275.122803
40
0.200000
0
CIRCLE
8
0
10
-166.007095
20
99.435402
30
275.122803
40
0.200000
0
CIRCLE
8
0
10
-164.776505
20
99.435402
30
275.122803
40
0.200000
0
CIRCLE
8
0
10
-164.776505
20
101.776398
30
275.122803
40
0.200000
0
CIRCLE
8
0
10
-166.007095
20
101.776398
30
275.122803
40
0.200000
0
CIRCLE
8
0
10
-166.007095
20
103.649200
30
275.122803
40
0.200000
0
CIRCLE
8
0
10
-165.186707
20
103.649200
30
275.122803
40
0.200000
0
CIRCLE
8
0
10
-165.186707
20
105.990204
30
275.122803
40
0.200000
0
CIRCLE
8
0
10
-166.007095
20
105.522003
30
275.122803
40
0.200000
0
CIRCLE
8
0
10
-167.647903
20
104.117401
30
275.122803
40
0.200000
0
CIRCLE
8
0
10
-168.878494
20
103.181000
30
275.122803
40
0.200000
0
CIRCLE
8
0
10
-170.929504
20
102.244598
30
275.122803
40
0.200000
0
CIRCLE
8
0
10
-172.570297
20
101.776398
30
275.122803
40
0.200000
0
CIRCLE
8
0
10
-174.211105
20
101.308197
30
275.122803
40
0.200000
0
CIRCLE
8
0
10
-175.851898
20
102.712799
30
275.122803
40
0.200000
0
CIRCLE
8
0
10
-175.851898
20
101.308197
30
275.122803
40
0.200000
0
CIRCLE
8
0
10
-175.851898
20
99.435402
30
275.122803
40
0.200000
0
CIRCLE
8
0
10
-174.211105
20
99.435402
30
275.122803
40
0.200000
0
CIRCLE
8
0
10
-173.390701
20
99.903603
30
275.122803
40
0.200000
0
CIRCLE
8
0
10
-172.570297
20
99.435402
30
275.122803
40
0.200000
0
CIRCLE
8
0
10
-172.570297
20
98.030800
30
275.122803
40
0.200000
0
CIRCLE
8
0
10
-170.519302
20
99.435402
30
275.122803
40
0.200000
0
CIRCLE
8
0
10
-169.288696
20
98.967201
30
275.122803
40
0.200000
0
CIRCLE
8
0
10
-168.468292
20
97.094398
30
275.122803
40
0.200000
0
CIRCLE
8
0
10
-168.468292
20
94.753403
30
275.122803
40
0.200000
0
CIRCLE
8
0
10
-168.468292
20
92.412399
30
275.122803
40
0.200000
0
CIRCLE
8
0
10
-169.288696
20
90.539597
30
275.122803
40
0.200000
0
CIRCLE
8
0
10
-170.929504
20
90.539597
30
275.122803
40
0.200000
0
CIRCLE
8
0
10
-172.570297
20
90.539597
30
275.122803
40
0.200000
0
CIRCLE
8
0
10
-173.390701
20
91.944199
30
275.122803
40
0.200000
0
CIRCLE
8
0
10
-172.160095
20
96.158005
30
275.122803
40
0.200000
0
CIRCLE
8
0
10
-172.570297
20
93.817001
30
275.122803
40
0.200000
0
CIRCLE
8
0
10
-174.621292
20
90.539597
30
275.122803
40
0.200000
0
CIRCLE
8
0
10
-176.262100
20
90.539597
30
275.122803
40
0.200000
0
CIRCLE
8
0
10
-176.262100
20
89.135002
30
275.122803
40
0.200000
0
CIRCLE
8
0
10
-177.902893
20
89.135002
30
275.122803
40
0.200000
0
CIRCLE
8
0
10
-177.902893
20
90.539597
30
275.122803
40
0.200000
0
CIRCLE
8
0
10
-179.543701
20
90.539597
30
275.122803
40
0.200000
0
CIRCLE
8
0
10
-179.543701
20
89.135002
30
275.122803
40
0.200000
0
CIRCLE
8
0
10
-181.184494
20
90.539597
30
275.122803
40
0.200000
0
CIRCLE
8
0
10
-183.235504
20
90.539597
30
275.122803
40
0.200000
0
CIRCLE
8
0
10
-182.004898
20
91.944199
30
275.122803
40
0.200000
0
CIRCLE
8
0
10
-182.825302
20
93.817001
30
275.122803
40
0.200000
0
CIRCLE
8
0
10
-182.825302
20
96.158005
30
275.122803
40
0.200000
0
CIRCLE
8
0
10
-182.825302
20
98.499001
30
275.122803
40
0.200000
0
CIRCLE
8
0
10
-181.184494
20
99.435402
30
275.122803
40
0.200000
0
CIRCLE
8
0
10
-182.004898
20
99.903603
30
275.122803
40
0.200000
0
CIRCLE
8
0
10
-182.825302
20
99.435402
30
275.122803
40
0.200000
0
CIRCLE
8
0
10
-184.466095
20
99.435402
30
275.122803
40
0.200000
0
CIRCLE
8
0
10
-185.696701
20
99.435402
30
275.122803
40
0.200000
0
CIRCLE
8
0
10
-186.927307
20
98.030800
30
275.122803
40
0.200000
0
CIRCLE
8
0
10
-186.927307
20
95.221603
30
275.122803
40
0.200000
0
CIRCLE
8
0
10
-186.927307
20
92.880600
30
275.122803
40
0.200000
0
CIRCLE
8
0
10
-186.106903
20
91.007797
30
275.122803
40
0.200000
0
CIRCLE
8
0
10
-184.466095
20
90.539597
30
275.122803
40
0.200000
0
CIRCLE
8
0
10
-184.466095
20
88.666801
30
275.122803
40
0.200000
0
CIRCLE
8
0
10
-182.825302
20
88.666801
30
275.122803
40
0.200000
0
CIRCLE
8
0
10
-181.184494
20
88.198601
30
275.122803
40
0.200000
0
CIRCLE
8
0
10
-179.543701
20
87.730400
30
275.122803
40
0.200000
0
CIRCLE
8
0
10
-177.902893
20
87.730400
30
275.122803
40
0.200000
0
CIRCLE
8
0
10
-176.262100
20
87.730400
30
275.122803
40
0.200000
0
CIRCLE
8
0
10
-174.211105
20
88.198601
30
275.122803
40
0.200000
0
CIRCLE
8
0
10
-172.570297
20
88.198601
30
275.122803
40
0.200000
0
CIRCLE
8
0
10
-170.929504
20
88.666801
30
275.122803
40
0.200000
0
CIRCLE
8
0
10
-169.288696
20
89.135002
30
275.122803
40
0.200000
0
CIRCLE
8
0
10
-168.468292
20
91.007797
30
275.122803
40
0.200000
0
CIRCLE
8
0
10
-167.647903
20
89.135002
30
275.122803
40
0.200000
0
CIRCLE
8
0
10
-168.878494
20
87.730400
30
275.122803
40
0.200000
0
CIRCLE
8
0
10
-170.519302
20
87.262199
30
275.122803
40
0.200000
0
CIRCLE
8
0
10
-172.570297
20
86.793999
30
275.122803
40
0.200000
0
CIRCLE
8
0
10
-174.211105
20
86.793999
30
275.122803
40
0.200000
0
CIRCLE
8
0
10
-175.851898
20
86.325806
30
275.122803
40
0.200000
0
CIRCLE
8
0
10
-177.492706
20
86.325806
30
275.122803
40
0.200000
0
CIRCLE
8
0
10
-179.133499
20
86.325806
30
275.122803
40
0.200000
0
CIRCLE
8
0
10
-180.774292
20
86.793999
30
275.122803
40
0.200000
0
CIRCLE
8
0
10
-182.415100
20
86.793999
30
275.122803
40
0.200000
0
CIRCLE
8
0
10
-184.466095
20
87.262199
30
275.122803
40
0.200000
0
CIRCLE
8
0
10
-186.106903
20
87.730400
30
275.122803
40
0.200000
0
CIRCLE
8
0
10
-186.106903
20
89.603203
30
275.122803
40
0.200000
0
CIRCLE
8
0
10
-187.337494
20
89.135002
30
275.122803
40
0.200000
0
CIRCLE
8
0
10
-186.927307
20
91.007797
30
275.122803
40
0.200000
0
CIRCLE
8
0
10
-188.157898
20
91.007797
30
275.122803
40
0.200000
0
CIRCLE
8
0
10
-187.747696
20
93.348801
30
275.122803
40
0.200000
0
CIRCLE
8
0
10
-188.978302
20
93.348801
30
275.122803
40
0.200000
0
CIRCLE
8
0
10
-188.157898
20
95.221603
30
275.122803
40
0.200000
0
CIRCLE
8
0
10
-189.798706
20
95.221603
30
275.122803
40
0.200000
0
CIRCLE
8
0
10
-190.208893
20
97.562599
30
275.122803
40
0.200000
0
CIRCLE
8
0
10
-188.568100
20
97.562599
30
275.122803
40
0.200000
0
CIRCLE
8
0
10
-188.978302
20
99.435402
30
275.122803
40
0.200000
0
CIRCLE
8
0
10
-190.208893
20
99.435402
30
275.122803
40
0.200000
0
CIRCLE
8
0
10
-190.208893
20
101.776398
30
275.122803
40
0.200000
0
CIRCLE
8
0
10
-189.388504
20
101.308197
30
275.122803
40
0.200000
0
CIRCLE
8
0
10
-188.978302
20
103.649200
30
275.122803
40
0.200000
0
CIRCLE
8
0
10
-189.798706
20
104.117401
30
275.122803
40
0.200000
0
CIRCLE
8
0
10
-189.798706
20
105.990204
30
275.122803
40
0.200000
0
CIRCLE
8
0
10
-188.978302
20
105.522003
30
275.122803
40
0.200000
0
CIRCLE
8
0
10
-187.747696
20
104.117401
30
275.122803
40
0.200000
0
CIRCLE
8
0
10
-186.106903
20
103.181000
30
275.122803
40
0.200000
0
CIRCLE
8
0
10
-184.466095
20
102.244598
30
275.122803
40
0.200000
0
CIRCLE
8
0
10
-182.415100
20
101.776398
30
275.122803
40
0.200000
0
CIRCLE
8
0
10
-181.184494
20
101.308197
30
275.122803
40
0.200000
0
CIRCLE
8
0
10
-179.543701
20
102.712799
30
275.122803
40
0.200000
0
CIRCLE
8
0
10
-179.543701
20
101.308197
30
275.122803
40
0.200000
0
CIRCLE
8
0
10
-179.133499
20
99.435402
30
275.122803
40
0.200000
0
CIRCLE
8
0
10
-177.492706
20
99.435402
30
275.122803
40
0.200000
0
CIRCLE
8
0
10
-177.492706
20
101.308197
30
275.122803
40
0.200000
0
CIRCLE
8
0
10
-177.492706
20
103.181000
30
275.122803
40
0.200000
0
CIRCLE
8
0
10
-178.313095
20
105.990204
30
275.122803
40
0.200000
0
CIRCLE
8
0
10
-176.672302
20
105.522003
30
275.122803
40
0.200000
0
CIRCLE
8
0
10
-175.851898
20
106.926605
30
275.122803
40
0.200000
0
CIRCLE
8
0
10
-173.800903
20
108.799400
30
275.122803
40
0.200000
0
CIRCLE
8
0
10
-171.749893
20
107.394806
30
275.122803
40
0.200000
0
CIRCLE
8
0
10
-169.698898
20
107.863007
30
275.122803
40
0.200000
0
CIRCLE
8
0
10
-170.929504
20
111.608597
30
275.122803
40
0.200000
0
CIRCLE
8
0
10
-168.468292
20
110.204002
30
275.122803
40
0.200000
0
CIRCLE
8
0
10
-168.468292
20
113.013199
30
275.122803
40
0.200000
0
CIRCLE
8
0
10
-168.878494
20
115.822403
30
275.122803
40
0.200000
0
CIRCLE
8
0
10
-170.519302
20
117.695206
30
275.122803
40
0.200000
0
CIRCLE
8
0
10
-172.570297
20
117.695206
30
275.122803
40
0.200000
0
CIRCLE
8
0
10
-174.211105
20
116.290604
30
275.122803
40
0.200000
0
CIRCLE
8
0
10
-175.031494
20
113.481400
30
275.122803
40
0.200000
0
CIRCLE
8
0
10
-172.980499
20
112.544998
30
275.122803
40
0.200000
0
CIRCLE
8
0
10
-174.621292
20
111.140396
30
275.122803
40
0.200000
0
CIRCLE
8
0
10
-175.851898
20
108.799400
30
275.122803
40
0.200000
0
CIRCLE
8
0
10
-177.082504
20
110.204002
30
275.122803
40
0.200000
0
CIRCLE
8
0
10
-178.723297
20
109.735802
30
275.122803
40
0.200000
0
CIRCLE
8
0
10
-179.133499
20
107.863007
30
275.122803
40
0.200000
0
CIRCLE
8
0
10
-180.774292
20
108.799400
30
275.122803
40
0.200000
0
CIRCLE
8
0
10
-182.004898
20
106.458405
30
275.122803
40
0.200000
0
CIRCLE
8
0
10
-184.055893
20
106.458405
30
275.122803
40
0.200000
0
CIRCLE
8
0
10
-185.696701
20
107.863007
30
275.122803
40
0.200000
0
CIRCLE
8
0
10
-184.466095
20
110.672195
30
275.122803
40
0.200000
0
CIRCLE
8
0
10
-186.517105
20
110.672195
30
275.122803
40
0.200000
0
CIRCLE
8
0
10
-186.106903
20
113.013199
30
275.122803
40
0.200000
0
CIRCLE
8
0
10
-184.876297
20
115.354202
30
275.122803
40
0.200000
0
CIRCLE
8
0
10
-182.825302
20
115.354202
30
275.122803
40
0.200000
0
CIRCLE
8
0
10
-180.774292
20
113.949600
30
275.122803
40
0.200000
0
CIRCLE
8
0
10
-182.415100
20
111.140396
30
275.122803
40
0.200000
0
CIRCLE
8
0
10
-179.953903
20
111.608597
30
275.122803
40
0.200000
0
TEXT
8
1
10
-182.415100
20
4.390800
30
275.122803
1
1
40
1.000000
0
TEXT
8
1
10
-182.415100
20
6.263603
30
275.122803
1
2
40
1.000000
0
TEXT
8
1
10
-183.645706
20
6.263603
30
275.122803
1
3
40
1.000000
0
TEXT
8
1
10
-183.645706
20
8.136402
30
275.122803
1
4
40
1.000000
0
TEXT
8
1
10
-184.876297
20
8.136402
30
275.122803
1
5
40
1.000000
0
TEXT
8
1
10
-184.466095
20
10.009201
30
275.122803
1
6
40
1.000000
0
TEXT
8
1
10
-185.696701
20
10.009201
30
275.122803
1
7
40
1.000000
0
TEXT
8
1
10
-185.286499
20
12.350201
30
275.122803
1
8
40
1.000000
0
TEXT
8
1
10
-186.517105
20
12.350201
30
275.122803
1
9
40
1.000000
0
TEXT
8
1
10
-186.927307
20
14.223000
30
275.122803
1
10
40
1.000000
0
TEXT
8
1
10
-185.696701
20
14.691200
30
275.122803
1
11
40
1.000000
0
TEXT
8
1
10
-186.106903
20
17.032200
30
275.122803
1
12
40
1.000000
0
TEXT
8
1
10
-187.337494
20
16.564003
30
275.122803
1
13
40
1.000000
0
TEXT
8
1
10
-187.337494
20
18.905003
30
275.122803
1
14
40
1.000000
0
TEXT
8
1
10
-186.517105
20
19.373203
30
275.122803
1
15
40
1.000000
0
TEXT
8
1
10
-186.517105
20
21.246002
30
275.122803
1
16
40
1.000000
0
TEXT
8
1
10
-187.337494
20
21.714203
30
275.122803
1
17
40
1.000000
0
TEXT
8
1
10
-187.337494
20
24.055202
30
275.122803
1
18
40
1.000000
0
TEXT
8
1
10
-186.517105
20
23.118801
30
275.122803
1
19
40
1.000000
0
TEXT
8
1
10
-184.876297
20
22.182400
30
275.122803
1
20
40
1.000000
0
TEXT
8
1
10
-183.235504
20
21.246002
30
275.122803
1
21
40
1.000000
0
TEXT
8
1
10
-181.184494
20
20.309601
30
275.122803
1
22
40
1.000000
0
TEXT
8
1
10
-179.133499
20
19.841400
30
275.122803
1
23
40
1.000000
0
TEXT
8
1
10
-177.492706
20
19.373203
30
275.122803
1
24
40
1.000000
0
TEXT
8
1
10
-175.851898
20
19.373203
30
275.122803
1
25
40
1.000000
0
TEXT
8
1
10
-175.851898
20
21.246002
30
275.122803
1
26
40
1.000000
0
TEXT
8
1
10
-175.441696
20
23.587002
30
275.122803
1
27
40
1.000000
0
TEXT
8
1
10
-174.211105
20
21.714203
30
275.122803
1
28
40
1.000000
0
TEXT
8
1
10
-173.800903
20
19.841400
30
275.122803
1
29
40
1.000000
0
TEXT
8
1
10
-173.800903
20
17.968601
30
275.122803
1
30
40
1.000000
0
TEXT
8
1
10
-175.441696
20
17.968601
30
275.122803
1
31
40
1.000000
0
TEXT
8
1
10
-177.492706
20
17.500401
30
275.122803
1
32
40
1.000000
0
TEXT
8
1
10
-178.313095
20
17.968601
30
275.122803
1
33
40
1.000000
0
TEXT
8
1
10
-179.133499
20
17.500401
30
275.122803
1
34
40
1.000000
0
TEXT
8
1
10
-181.184494
20
17.500401
30
275.122803
1
35
40
1.000000
0
TEXT
8
1
10
-182.415100
20
17.032200
30
275.122803
1
36
40
1.000000
0
TEXT
8
1
10
-183.645706
20
14.691200
30
275.122803
1
37
40
1.000000
0
TEXT
8
1
10
-183.645706
20
12.818401
30
275.122803
1
38
40
1.000000
0
TEXT
8
1
10
-183.645706
20
10.009201
30
275.122803
1
39
40
1.000000
0
TEXT
8
1
10
-182.825302
20
8.136402
30
275.122803
1
40
40
1.000000
0
TEXT
8
1
10
-180.774292
20
7.668201
30
275.122803
1
41
40
1.000000
0
TEXT
8
1
10
-179.133499
20
7.668201
30
275.122803
1
42
40
1.000000
0
TEXT
8
1
10
-177.902893
20
9.541000
30
275.122803
1
43
40
1.000000
0
TEXT
8
1
10
-179.543701
20
13.754803
30
275.122803
1
44
40
1.000000
0
TEXT
8
1
10
-179.133499
20
16.095802
30
275.122803
1
45
40
1.000000
0
TEXT
8
1
10
-179.133499
20
11.413803
30
275.122803
1
46
40
1.000000
0
TEXT
8
1
10
-177.082504
20
7.668201
30
275.122803
1
47
40
1.000000
0
TEXT
8
1
10
-175.441696
20
8.136402
30
275.122803
1
48
40
1.000000
0
TEXT
8
1
10
-175.441696
20
6.731800
30
275.122803
1
49
40
1.000000
0
TEXT
8
1
10
-173.800903
20
6.263603
30
275.122803
1
50
40
1.000000
0
TEXT
8
1
10
-173.800903
20
8.136402
30
275.122803
1
51
40
1.000000
0
TEXT
8
1
10
-171.749893
20
8.136402
30
275.122803
1
52
40
1.000000
0
TEXT
8
1
10
-171.749893
20
6.731800
30
275.122803
1
53
40
1.000000
0
TEXT
8
1
10
-169.698898
20
8.136402
30
275.122803
1
54
40
1.000000
0
TEXT
8
1
10
-168.468292
20
8.604603
30
275.122803
1
55
40
1.000000
0
TEXT
8
1
10
-168.878494
20
10.009201
30
275.122803
1
56
40
1.000000
0
TEXT
8
1
10
-168.058105
20
12.350201
30
275.122803
1
57
40
1.000000
0
TEXT
8
1
10
-168.058105
20
14.223000
30
275.122803
1
58
40
1.000000
0
TEXT
8
1
10
-168.468292
20
17.032200
30
275.122803
1
59
40
1.000000
0
TEXT
8
1
10
-169.288696
20
18.905003
30
275.122803
1
60
40
1.000000
0
TEXT
8
1
10
-170.519302
20
20.309601
30
275.122803
1
61
40
1.000000
0
TEXT
8
1
10
-168.468292
20
20.777802
30
275.122803
1
62
40
1.000000
0
TEXT
8
1
10
-166.827499
20
21.714203
30
275.122803
1
63
40
1.000000
0
TEXT
8
1
10
-164.776505
20
22.650600
30
275.122803
1
64
40
1.000000
0
TEXT
8
1
10
-163.135696
20
23.587002
30
275.122803
1
65
40
1.000000
0
TEXT
8
1
10
-161.905106
20
24.991600
30
275.122803
1
66
40
1.000000
0
TEXT
8
1
10
-161.084702
20
25.928001
30
275.122803
1
67
40
1.000000
0
TEXT
8
1
10
-160.674500
20
23.587002
30
275.122803
1
68
40
1.000000
0
TEXT
8
1
10
-161.494904
20
23.587002
30
275.122803
1
69
40
1.000000
0
TEXT
8
1
10
-161.494904
20
21.246002
30
275.122803
1
70
40
1.000000
0
TEXT
8
1
10
-160.264297
20
21.246002
30
275.122803
1
71
40
1.000000
0
TEXT
8
1
10
-160.264297
20
18.905003
30
275.122803
1
72
40
1.000000
0
TEXT
8
1
10
-161.494904
20
18.436802
30
275.122803
1
73
40
1.000000
0
TEXT
8
1
10
-161.905106
20
16.095802
30
275.122803
1
74
40
1.000000
0
TEXT
8
1
10
-160.264297
20
16.564003
30
275.122803
1
75
40
1.000000
0
TEXT
8
1
10
-160.674500
20
14.223000
30
275.122803
1
76
40
1.000000
0
TEXT
8
1
10
-161.905106
20
13.754803
30
275.122803
1
77
40
1.000000
0
TEXT
8
1
10
-161.084702
20
11.882000
30
275.122803
1
78
40
1.000000
0
TEXT
8
1
10
-162.725494
20
11.413803
30
275.122803
1
79
40
1.000000
0
TEXT
8
1
10
-161.905106
20
9.541000
30
275.122803
1
80
40
1.000000
0
TEXT
8
1
10
-162.725494
20
7.200001
30
275.122803
1
81
40
1.000000
0
TEXT
8
1
10
-163.956100
20
5.795403
30
275.122803
1
82
40
1.000000
0
TEXT
8
1
10
-165.596893
20
5.327202
30
275.122803
1
83
40
1.000000
0
TEXT
8
1
10
-167.647903
20
4.859001
30
275.122803
1
84
40
1.000000
0
TEXT
8
1
10
-169.698898
20
4.390800
30
275.122803
1
85
40
1.000000
0
TEXT
8
1
10
-171.339706
20
3.922600
30
275.122803
1
86
40
1.000000
0
TEXT
8
1
10
-172.980499
20
3.922600
30
275.122803
1
87
40
1.000000
0
TEXT
8
1
10
-175.031494
20
3.922600
30
275.122803
1
88
40
1.000000
0
TEXT
8
1
10
-176.672302
20
3.922600
30
275.122803
1
89
40
1.000000
0
TEXT
8
1
10
-178.723297
20
3.922600
30
275.122803
1
90
40
1.000000
0
TEXT
8
1
10
-180.774292
20
4.390800
30
275.122803
1
91
40
1.000000
0
TEXT
8
1
10
-180.774292
20
5.795403
30
275.122803
1
92
40
1.000000
0
TEXT
8
1
10
-178.723297
20
5.327202
30
275.122803
1
93
40
1.000000
0
TEXT
8
1
10
-177.082504
20
5.327202
30
275.122803
1
94
40
1.000000
0
TEXT
8
1
10
-175.441696
20
5.327202
30
275.122803
1
95
40
1.000000
0
TEXT
8
1
10
-173.390701
20
5.327202
30
275.122803
1
96
40
1.000000
0
TEXT
8
1
10
-171.339706
20
5.327202
30
275.122803
1
97
40
1.000000
0
TEXT
8
1
10
-169.698898
20
5.795403
30
275.122803
1
98
40
1.000000
0
TEXT
8
1
10
-168.058105
20
6.263603
30
275.122803
1
99
40
1.000000
0
TEXT
8
1
10
-166.417297
20
6.731800
30
275.122803
1
100
40
1.000000
0
TEXT
8
1
10
-166.417297
20
8.604603
30
275.122803
1
101
40
1.000000
0
TEXT
8
1
10
-164.366302
20
7.668201
30
275.122803
1
102
40
1.000000
0
TEXT
8
1
10
-164.776505
20
9.072800
30
275.122803
1
103
40
1.000000
0
TEXT
8
1
10
-163.545898
20
9.541000
30
275.122803
1
104
40
1.000000
0
TEXT
8
1
10
-163.545898
20
10.945602
30
275.122803
1
105
40
1.000000
0
TEXT
8
1
10
-163.545898
20
13.754803
30
275.122803
1
106
40
1.000000
0
TEXT
8
1
10
-163.956100
20
15.627602
30
275.122803
1
107
40
1.000000
0
TEXT
8
1
10
-164.776505
20
17.968601
30
275.122803
1
108
40
1.000000
0
TEXT
8
1
10
-166.417297
20
18.436802
30
275.122803
1
109
40
1.000000
0
TEXT
8
1
10
-168.058105
20
18.436802
30
275.122803
1
110
40
1.000000
0
TEXT
8
1
10
-169.698898
20
17.968601
30
275.122803
1
111
40
1.000000
0
TEXT
8
1
10
-171.749893
20
17.968601
30
275.122803
1
112
40
1.000000
0
TEXT
8
1
10
-172.160095
20
19.841400
30
275.122803
1
113
40
1.000000
0
TEXT
8
1
10
-171.749893
20
21.714203
30
275.122803
1
114
40
1.000000
0
TEXT
8
1
10
-172.980499
20
24.055202
30
275.122803
1
115
40
1.000000
0
TEXT
8
1
10
-171.339706
20
25.928001
30
275.122803
1
116
40
1.000000
0
TEXT
8
1
10
-172.160095
20
29.205402
30
275.122803
1
117
40
1.000000
0
TEXT
8
1
10
-171.339706
20
31.078201
30
275.122803
1
118
40
1.000000
0
TEXT
8
1
10
-169.698898
20
32.951000
30
275.122803
1
119
40
1.000000
0
TEXT
8
1
10
-168.058105
20
33.887402
30
275.122803
1
120
40
1.000000
0
TEXT
8
1
10
-166.007095
20
34.823803
30
275.122803
1
121
40
1.000000
0
TEXT
8
1
10
-164.366302
20
34.823803
30
275.122803
1
122
40
1.000000
0
TEXT
8
1
10
-162.315292
20
34.823803
30
275.122803
1
123
40
1.000000
0
TEXT
8
1
10
-163.135696
20
37.633003
30
275.122803
1
124
40
1.000000
0
TEXT
8
1
10
-164.776505
20
39.505802
30
275.122803
1
125
40
1.000000
0
TEXT
8
1
10
-166.417297
20
40.442200
30
275.122803
1
126
40
1.000000
0
TEXT
8
1
10
-168.468292
20
39.973999
30
275.122803
1
127
40
1.000000
0
TEXT
8
1
10
-170.109100
20
38.569401
30
275.122803
1
128
40
1.000000
0
TEXT
8
1
10
-171.339706
20
36.228401
30
275.122803
1
129
40
1.000000
0
TEXT
8
1
10
-171.749893
20
33.887402
30
275.122803
1
130
40
1.000000
0
TEXT
8
1
10
-173.390701
20
32.014603
30
275.122803
1
131
40
1.000000
0
TEXT
8
1
10
-175.441696
20
31.546402
30
275.122803
1
132
40
1.000000
0
TEXT
8
1
10
-176.262100
20
29.205402
30
275.122803
1
133
40
1.000000
0
TEXT
8
1
10
-176.672302
20
25.928001
30
275.122803
1
134
40
1.000000
0
TEXT
8
1
10
-177.902893
20
30.610001
30
275.122803
1
135
40
1.000000
0
TEXT
8
1
10
-179.543701
20
32.014603
30
275.122803
1
136
40
1.000000
0
TEXT
8
1
10
-181.184494
20
33.419201
30
275.122803
1
137
40
1.000000
0
TEXT
8
1
10
-182.825302
20
34.355602
30
275.122803
1
138
40
1.000000
0
TEXT
8
1
10
-184.876297
20
34.823803
30
275.122803
1
139
40
1.000000
0
TEXT
8
1
10
-186.517105
20
34.823803
30
275.122803
1
140
40
1.000000
0
TEXT
8
1
10
-185.696701
20
37.164803
30
275.122803
1
141
40
1.000000
0
TEXT
8
1
10
-184.055893
20
39.037601
30
275.122803
1
142
40
1.000000
0
TEXT
8
1
10
-182.004898
20
39.973999
30
275.122803
1
143
40
1.000000
0
TEXT
8
1
10
-178.313095
20
38.101204
30
275.122803
1
144
40
1.000000
0
TEXT
8
1
10
-177.082504
20
32.951000
30
275.122803
1
145
40
1.000000
0
TEXT
8
1
10
-177.082504
20
35.760201
30
275.122803
1
146
40
1.000000
0
TEXT
8
1
10
-180.364105
20
39.505802
30
275.122803
1
147
40
1.000000
0
TEXT
8
1
10
-180.364105
20
44.187801
30
275.122803
1
148
40
1.000000
0
TEXT
8
1
10
-178.313095
20
43.719601
30
275.122803
1
149
40
1.000000
0
TEXT
8
1
10
-176.672302
20
43.719601
30
275.122803
1
150
40
1.000000
0
TEXT
8
1
10
-174.621292
20
43.719601
30
275.122803
1
151
40
1.000000
0
TEXT
8
1
10
-172.980499
20
43.719601
30
275.122803
1
152
40
1.000000
0
TEXT
8
1
10
-170.929504
20
44.187801
30
275.122803
1
153
40
1.000000
0
TEXT
8
1
10
-168.878494
20
44.656002
30
275.122803
1
154
40
1.000000
0
TEXT
8
1
10
-167.237701
20
45.124199
30
275.122803
1
155
40
1.000000
0
TEXT
8
1
10
-165.596893
20
45.592400
30
275.122803
1
156
40
1.000000
0
TEXT
8
1
10
-164.366302
20
47.465202
30
275.122803
1
157
40
1.000000
0
TEXT
8
1
10
-163.135696
20
49.338001
30
275.122803
1
158
40
1.000000
0
TEXT
8
1
10
-163.956100
20
51.210800
30
275.122803
1
159
40
1.000000
0
TEXT
8
1
10
-162.315292
20
51.679001
30
275.122803
1
160
40
1.000000
0
TEXT
8
1
10
-163.545898
20
53.551804
30
275.122803
1
161
40
1.000000
0
TEXT
8
1
10
-161.905106
20
54.020000
30
275.122803
1
162
40
1.000000
0
TEXT
8
1
10
-161.905106
20
56.361000
30
275.122803
1
163
40
1.000000
0
TEXT
8
1
10
-163.135696
20
55.892799
30
275.122803
1
164
40
1.000000
0
TEXT
8
1
10
-162.725494
20
58.233803
30
275.122803
1
165
40
1.000000
0
TEXT
8
1
10
-161.494904
20
58.702003
30
275.122803
1
166
40
1.000000
0
TEXT
8
1
10
-161.494904
20
61.042999
30
275.122803
1
167
40
1.000000
0
TEXT
8
1
10
-162.725494
20
61.042999
30
275.122803
1
168
40
1.000000
0
TEXT
8
1
10
-163.135696
20
63.384003
30
275.122803
1
169
40
1.000000
0
TEXT
8
1
10
-161.905106
20
63.384003
30
275.122803
1
170
40
1.000000
0
TEXT
8
1
10
-162.315292
20
65.724998
30
275.122803
1
171
40
1.000000
0
TEXT
8
1
10
-163.135696
20
64.788605
30
275.122803
1
172
40
1.000000
0
TEXT
8
1
10
-164.776505
20
63.384003
30
275.122803
1
173
40
1.000000
0
TEXT
8
1
10
-166.007095
20
62.447601
30
275.122803
1
174
40
1.000000
0
TEXT
8
1
10
-168.058105
20
61.511200
30
275.122803
1
175
40
1.000000
0
TEXT
8
1
10
-169.698898
20
60.574802
30
275.122803
1
176
40
1.000000
0
TEXT
8
1
10
-171.749893
20
60.106602
30
275.122803
1
177
40
1.000000
0
TEXT
8
1
10
-170.519302
20
58.702003
30
275.122803
1
178
40
1.000000
0
TEXT
8
1
10
-169.698898
20
58.233803
30
275.122803
1
179
40
1.000000
0
TEXT
8
1
10
-167.647903
20
58.233803
30
275.122803
1
180
40
1.000000
0
TEXT
8
1
10
-166.007095
20
57.765602
30
275.122803
1
181
40
1.000000
0
TEXT
8
1
10
-165.186707
20
55.892799
30
275.122803
1
182
40
1.000000
0
TEXT
8
1
10
-165.186707
20
53.551804
30
275.122803
1
183
40
1.000000
0
TEXT
8
1
10
-165.186707
20
50.742599
30
275.122803
1
184
40
1.000000
0
TEXT
8
1
10
-165.186707
20
49.338001
30
275.122803
1
185
40
1.000000
0
TEXT
8
1
10
-166.417297
20
48.869801
30
275.122803
1
186
40
1.000000
0
TEXT
8
1
10
-166.007095
20
46.997002
30
275.122803
1
187
40
1.000000
0
TEXT
8
1
10
-167.647903
20
48.401604
30
275.122803
1
188
40
1.000000
0
TEXT
8
1
10
-167.647903
20
46.528801
30
275.122803
1
189
40
1.000000
0
TEXT
8
1
10
-169.698898
20
46.060600
30
275.122803
1
190
40
1.000000
0
TEXT
8
1
10
-171.339706
20
45.592400
30
275.122803
1
191
40
1.000000
0
TEXT
8
1
10
-172.980499
20
45.592400
30
275.122803
1
192
40
1.000000
0
TEXT
8
1
10
-172.980499
20
46.997002
30
275.122803
1
193
40
1.000000
0
TEXT
8
1
10
-175.441696
20
46.528801
30
275.122803
1
194
40
1.000000
0
TEXT
8
1
10
-175.031494
20
45.124199
30
275.122803
1
195
40
1.000000
0
TEXT
8
1
10
-176.672302
20
45.124199
30
275.122803
1
196
40
1.000000
0
TEXT
8
1
10
-178.723297
20
45.124199
30
275.122803
1
197
40
1.000000
0
TEXT
8
1
10
-180.364105
20
45.592400
30
275.122803
1
198
40
1.000000
0
TEXT
8
1
10
-182.004898
20
46.060600
30
275.122803
1
199
40
1.000000
0
TEXT
8
1
10
-182.004898
20
44.187801
30
275.122803
1
200
40
1.000000
0
TEXT
8
1
10
-184.055893
20
44.656002
30
275.122803
1
201
40
1.000000
0
TEXT
8
1
10
-183.645706
20
46.528801
30
275.122803
1
202
40
1.000000
0
TEXT
8
1
10
-185.286499
20
46.060600
30
275.122803
1
203
40
1.000000
0
TEXT
8
1
10
-185.286499
20
48.401604
30
275.122803
1
204
40
1.000000
0
TEXT
8
1
10
-186.517105
20
47.933403
30
275.122803
1
205
40
1.000000
0
TEXT
8
1
10
-185.696701
20
50.274399
30
275.122803
1
206
40
1.000000
0
TEXT
8
1
10
-187.337494
20
50.274399
30
275.122803
1
207
40
1.000000
0
TEXT
8
1
10
-186.517105
20
52.615402
30
275.122803
1
208
40
1.000000
0
TEXT
8
1
10
-188.157898
20
52.147202
30
275.122803
1
209
40
1.000000
0
TEXT
8
1
10
-188.568100
20
54.488201
30
275.122803
1
210
40
1.000000
0
TEXT
8
1
10
-186.927307
20
54.956402
30
275.122803
1
211
40
1.000000
0
TEXT
8
1
10
-187.337494
20
57.297401
30
275.122803
1
212
40
1.000000
0
TEXT
8
1
10
-188.978302
20
56.829201
30
275.122803
1
213
40
1.000000
0
TEXT
8
1
10
-188.568100
20
59.170200
30
275.122803
1
214
40
1.000000
0
TEXT
8
1
10
-187.747696
20
59.638401
30
275.122803
1
215
40
1.000000
0
TEXT
8
1
10
-187.747696
20
61.511200
30
275.122803
1
216
40
1.000000
0
TEXT
8
1
10
-188.568100
20
61.511200
30
275.122803
1
217
40
1.000000
0
TEXT
8
1
10
-188.568100
20
64.320404
30
275.122803
1
218
40
1.000000
0
TEXT
8
1
10
-187.747696
20
63.384003
30
275.122803
1
219
40
1.000000
0
TEXT
8
1
10
-186.517105
20
62.447601
30
275.122803
1
220
40
1.000000
0
TEXT
8
1
10
-184.466095
20
61.511200
30
275.122803
1
221
40
1.000000
0
TEXT
8
1
10
-182.825302
20
60.574802
30
275.122803
1
222
40
1.000000
0
TEXT
8
1
10
-180.774292
20
60.106602
30
275.122803
1
223
40
1.000000
0
TEXT
8
1
10
-179.133499
20
59.638401
30
275.122803
1
224
40
1.000000
0
TEXT
8
1
10
-177.492706
20
61.511200
30
275.122803
1
225
40
1.000000
0
TEXT
8
1
10
-177.082504
20
59.638401
30
275.122803
1
226
40
1.000000
0
TEXT
8
1
10
-175.441696
20
59.638401
30
275.122803
1
227
40
1.000000
0
TEXT
8
1
10
-175.031494
20
57.765602
30
275.122803
1
228
40
1.000000
0
TEXT
8
1
10
-176.672302
20
57.765602
30
275.122803
1
229
40
1.000000
0
TEXT
8
1
10
-178.723297
20
57.765602
30
275.122803
1
230
40
1.000000
0
TEXT
8
1
10
-179.953903
20
58.233803
30
275.122803
1
231
40
1.000000
0
TEXT
8
1
10
-180.774292
20
57.765602
30
275.122803
1
232
40
1.000000
0
TEXT
8
1
10
-182.415100
20
57.297401
30
275.122803
1
233
40
1.000000
0
TEXT
8
1
10
-184.055893
20
56.829201
30
275.122803
1
234
40
1.000000
0
TEXT
8
1
10
-184.876297
20
54.956402
30
275.122803
1
235
40
1.000000
0
TEXT
8
1
10
-184.876297
20
52.615402
30
275.122803
1
236
40
1.000000
0
TEXT
8
1
10
-184.876297
20
50.274399
30
275.122803
1
237
40
1.000000
0
TEXT
8
1
10
-184.055893
20
48.401604
30
275.122803
1
238
40
1.000000
0
TEXT
8
1
10
-182.415100
20
47.465202
30
275.122803
1
239
40
1.000000
0
TEXT
8
1
10
-180.364105
20
47.933403
30
275.122803
1
240
40
1.000000
0
TEXT
8
1
10
-179.543701
20
48.869801
30
275.122803
1
241
40
1.000000
0
TEXT
8
1
10
-180.774292
20
53.551804
30
275.122803
1
242
40
1.000000
0
TEXT
8
1
10
-180.774292
20
56.361000
30
275.122803
1
243
40
1.000000
0
TEXT
8
1
10
-180.364105
20
51.210800
30
275.122803
1
244
40
1.000000
0
TEXT
8
1
10
-178.723297
20
47.933403
30
275.122803
1
245
40
1.000000
0
TEXT
8
1
10
-177.082504
20
47.933403
30
275.122803
1
246
40
1.000000
0
TEXT
8
1
10
-176.672302
20
46.528801
30
275.122803
1
247
40
1.000000
0
TEXT
8
1
10
-175.031494
20
47.933403
30
275.122803
1
248
40
1.000000
0
TEXT
8
1
10
-173.390701
20
47.933403
30
275.122803
1
249
40
1.000000
0
TEXT
8
1
10
-171.339706
20
48.401604
30
275.122803
1
250
40
1.000000
0
TEXT
8
1
10
-169.698898
20
48.401604
30
275.122803
1
251
40
1.000000
0
TEXT
8
1
10
-170.109100
20
49.806202
30
275.122803
1
252
40
1.000000
0
TEXT
8
1
10
-169.698898
20
52.147202
30
275.122803
1
253
40
1.000000
0
TEXT
8
1
10
-169.288696
20
54.020000
30
275.122803
1
254
40
1.000000
0
TEXT
8
1
10
-169.698898
20
56.829201
30
275.122803
1
255
40
1.000000
0
TEXT
8
1
10
-171.339706
20
58.233803
30
275.122803
1
256
40
1.000000
0
TEXT
8
1
10
-172.980499
20
58.233803
30
275.122803
1
257
40
1.000000
0
TEXT
8
1
10
-173.390701
20
60.106602
30
275.122803
1
258
40
1.000000
0
TEXT
8
1
10
-173.390701
20
61.511200
30
275.122803
1
259
40
1.000000
0
TEXT
8
1
10
-175.441696
20
61.979401
30
275.122803
1
260
40
1.000000
0
TEXT
8
1
10
-174.211105
20
64.320404
30
275.122803
1
261
40
1.000000
0
TEXT
8
1
10
-176.672302
20
64.788605
30
275.122803
1
262
40
1.000000
0
TEXT
8
1
10
-177.902893
20
67.129601
30
275.122803
1
263
40
1.000000
0
TEXT
8
1
10
-179.953903
20
69.002403
30
275.122803
1
264
40
1.000000
0
TEXT
8
1
10
-181.594696
20
66.661400
30
275.122803
1
265
40
1.000000
0
TEXT
8
1
10
-184.055893
20
66.193199
30
275.122803
1
266
40
1.000000
0
TEXT
8
1
10
-185.696701
20
68.066002
30
275.122803
1
267
40
1.000000
0
TEXT
8
1
10
-186.517105
20
71.343399
30
275.122803
1
268
40
1.000000
0
TEXT
8
1
10
-186.106903
20
73.216202
30
275.122803
1
269
40
1.000000
0
TEXT
8
1
10
-184.055893
20
73.216202
30
275.122803
1
270
40
1.000000
0
TEXT
8
1
10
-186.927307
20
74.620804
30
275.122803
1
271
40
1.000000
0
TEXT
8
1
10
-186.517105
20
77.430000
30
275.122803
1
272
40
1.000000
0
TEXT
8
1
10
-184.876297
20
79.771004
30
275.122803
1
273
40
1.000000
0
TEXT
8
1
10
-182.415100
20
80.239204
30
275.122803
1
274
40
1.000000
0
TEXT
8
1
10
-180.774292
20
78.366402
30
275.122803
1
275
40
1.000000
0
TEXT
8
1
10
-179.953903
20
75.557205
30
275.122803
1
276
40
1.000000
0
TEXT
8
1
10
-182.004898
20
73.216202
30
275.122803
1
277
40
1.000000
0
TEXT
8
1
10
-180.364105
20
73.216202
30
275.122803
1
278
40
1.000000
0
TEXT
8
1
10
-179.953903
20
72.279800
30
275.122803
1
279
40
1.000000
0
TEXT
8
1
10
-177.492706
20
70.406998
30
275.122803
1
280
40
1.000000
0
TEXT
8
1
10
-176.262100
20
72.748001
30
275.122803
1
281
40
1.000000
0
TEXT
8
1
10
-174.211105
20
72.748001
30
275.122803
1
282
40
1.000000
0
TEXT
8
1
10
-172.980499
20
69.470604
30
275.122803
1
283
40
1.000000
0
TEXT
8
1
10
-172.570297
20
66.193199
30
275.122803
1
284
40
1.000000
0
TEXT
8
1
10
-170.519302
20
68.534203
30
275.122803
1
285
40
1.000000
0
TEXT
8
1
10
-168.468292
20
66.193199
30
275.122803
1
286
40
1.000000
0
TEXT
8
1
10
-166.417297
20
66.661400
30
275.122803
1
287
40
1.000000
0
TEXT
8
1
10
-165.186707
20
69.002403
30
275.122803
1
288
40
1.000000
0
TEXT
8
1
10
-164.366302
20
71.811600
30
275.122803
1
289
40
1.000000
0
TEXT
8
1
10
-164.366302
20
75.089005
30
275.122803
1
290
40
1.000000
0
TEXT
8
1
10
-165.186707
20
77.898201
30
275.122803
1
291
40
1.000000
0
TEXT
8
1
10
-165.186707
20
73.216202
30
275.122803
1
292
40
1.000000
0
TEXT
8
1
10
-166.827499
20
73.216202
30
275.122803
1
293
40
1.000000
0
TEXT
8
1
10
-168.878494
20
73.216202
30
275.122803
1
294
40
1.000000
0
TEXT
8
1
10
-170.929504
20
72.748001
30
275.122803
1
295
40
1.000000
0
TEXT
8
1
10
-171.339706
20
71.343399
30
275.122803
1
296
40
1.000000
0
TEXT
8
1
10
-171.749893
20
74.620804
30
275.122803
1
297
40
1.000000
0
TEXT
8
1
10
-170.929504
20
77.898201
30
275.122803
1
298
40
1.000000
0
TEXT
8
1
10
-169.698898
20
80.239204
30
275.122803
1
299
40
1.000000
0
TEXT
8
1
10
-167.237701
20
80.239204
30
275.122803
1
300
40
1.000000
0
TEXT
8
1
10
-165.596893
20
84.921204
30
275.122803
1
301
40
1.000000
0
TEXT
8
1
10
-162.315292
20
83.516602
30
275.122803
1
302
40
1.000000
0
TEXT
8
1
10
-159.443893
20
80.707397
30
275.122803
1
303
40
1.000000
0
TEXT
8
1
10
-156.982697
20
77.430000
30
275.122803
1
304
40
1.000000
0
TEXT
8
1
10
-155.341904
20
72.748001
30
275.122803
1
305
40
1.000000
0
TEXT
8
1
10
-154.521500
20
68.534203
30
275.122803
1
306
40
1.000000
0
TEXT
8
1
10
-154.111298
20
63.852200
30
275.122803
1
307
40
1.000000
0
TEXT
8
1
10
-154.931702
20
58.702003
30
275.122803
1
308
40
1.000000
0
TEXT
8
1
10
-155.341904
20
54.488201
30
275.122803
1
309
40
1.000000
0
TEXT
8
1
10
-156.982697
20
49.806202
30
275.122803
1
310
40
1.000000
0
TEXT
8
1
10
-154.521500
20
46.997002
30
275.122803
1
311
40
1.000000
0
TEXT
8
1
10
-152.060303
20
43.719601
30
275.122803
1
312
40
1.000000
0
TEXT
8
1
10
-150.419495
20
39.505802
30
275.122803
1
313
40
1.000000
0
TEXT
8
1
10
-149.599106
20
35.292000
30
275.122803
1
314
40
1.000000
0
TEXT
8
1
10
-149.188904
20
30.141800
30
275.122803
1
315
40
1.000000
0
TEXT
8
1
10
-149.188904
20
25.459801
30
275.122803
1
316
40
1.000000
0
TEXT
8
1
10
-150.009308
20
20.777802
30
275.122803
1
317
40
1.000000
0
TEXT
8
1
10
-150.829697
20
16.095802
30
275.122803
1
318
40
1.000000
0
TEXT
8
1
10
-152.470505
20
11.882000
30
275.122803
1
319
40
1.000000
0
TEXT
8
1
10
-154.521500
20
8.136402
30
275.122803
1
320
40
1.000000
0
TEXT
8
1
10
-156.162292
20
5.327202
30
275.122803
1
321
40
1.000000
0
TEXT
8
1
10
-158.623505
20
2.986198
30
275.122803
1
322
40
1.000000
0
TEXT
8
1
10
-160.674500
20
2.049805
30
275.122803
1
323
40
1.000000
0
TEXT
8
1
10
-163.135696
20
1.113403
30
275.122803
1
324
40
1.000000
0
TEXT
8
1
10
-165.596893
20
0.645203
30
275.122803
1
325
40
1.000000
0
TEXT
8
1
10
-168.878494
20
0.177002
30
275.122803
1
326
40
1.000000
0
TEXT
8
1
10
-172.160095
20
0.177002
30
275.122803
1
327
40
1.000000
0
TEXT
8
1
10
-175.441696
20
0.177002
30
275.122803
1
328
40
1.000000
0
TEXT
8
1
10
-178.313095
20
0.177002
30
275.122803
1
329
40
1.000000
0
TEXT
8
1
10
-180.774292
20
0.177002
30
275.122803
1
330
40
1.000000
0
TEXT
8
1
10
-183.645706
20
1.113403
30
275.122803
1
331
40
1.000000
0
TEXT
8
1
10
-186.517105
20
2.049805
30
275.122803
1
332
40
1.000000
0
TEXT
8
1
10
-189.388504
20
3.454399
30
275.122803
1
333
40
1.000000
0
TEXT
8
1
10
-191.439499
20
4.859001
30
275.122803
1
334
40
1.000000
0
TEXT
8
1
10
-193.490494
20
7.200001
30
275.122803
1
335
40
1.000000
0
TEXT
8
1
10
-195.541504
20
11.413803
30
275.122803
1
336
40
1.000000
0
TEXT
8
1
10
-196.772095
20
15.627602
30
275.122803
1
337
40
1.000000
0
TEXT
8
1
10
-198.002701
20
20.309601
30
275.122803
1
338
40
1.000000
0
TEXT
8
1
10
-198.823105
20
24.991600
30
275.122803
1
339
40
1.000000
0
TEXT
8
1
10
-199.233307
20
29.673603
30
275.122803
1
340
40
1.000000
0
TEXT
8
1
10
-198.002701
20
34.355602
30
275.122803
1
341
40
1.000000
0
TEXT
8
1
10
-196.361893
20
38.101204
30
275.122803
1
342
40
1.000000
0
TEXT
8
1
10
-193.490494
20
41.378601
30
275.122803
1
343
40
1.000000
0
TEXT
8
1
10
-192.259903
20
44.656002
30
275.122803
1
344
40
1.000000
0
TEXT
8
1
10
-194.310898
20
48.401604
30
275.122803
1
345
40
1.000000
0
TEXT
8
1
10
-195.951691
20
53.083603
30
275.122803
1
346
40
1.000000
0
TEXT
8
1
10
-196.772095
20
57.297401
30
275.122803
1
347
40
1.000000
0
TEXT
8
1
10
-197.182297
20
62.447601
30
275.122803
1
348
40
1.000000
0
TEXT
8
1
10
-196.772095
20
67.129601
30
275.122803
1
349
40
1.000000
0
TEXT
8
1
10
-195.951691
20
71.811600
30
275.122803
1
350
40
1.000000
0
TEXT
8
1
10
-194.310898
20
75.557205
30
275.122803
1
351
40
1.000000
0
TEXT
8
1
10
-192.259903
20
79.771004
30
275.122803
1
352
40
1.000000
0
TEXT
8
1
10
-189.798706
20
82.580200
30
275.122803
1
353
40
1.000000
0
TEXT
8
1
10
-188.978302
20
86.325806
30
275.122803
1
354
40
1.000000
0
TEXT
8
1
10
-190.619095
20
90.539597
30
275.122803
1
355
40
1.000000
0
TEXT
8
1
10
-191.849701
20
94.753403
30
275.122803
1
356
40
1.000000
0
TEXT
8
1
10
-192.670105
20
99.435402
30
275.122803
1
357
40
1.000000
0
TEXT
8
1
10
-192.670105
20
104.117401
30
275.122803
1
358
40
1.000000
0
TEXT
8
1
10
-192.259903
20
109.267601
30
275.122803
1
359
40
1.000000
0
TEXT
8
1
10
-191.849701
20
113.949600
30
275.122803
1
360
40
1.000000
0
TEXT
8
1
10
-190.208893
20
117.695206
30
275.122803
1
361
40
1.000000
0
TEXT
8
1
10
-187.747696
20
121.440796
30
275.122803
1
362
40
1.000000
0
TEXT
8
1
10
-184.466095
20
123.313599
30
275.122803
1
363
40
1.000000
0
TEXT
8
1
10
-181.184494
20
125.186401
30
275.122803
1
364
40
1.000000
0
TEXT
8
1
10
-178.723297
20
127.995605
30
275.122803
1
365
40
1.000000
0
TEXT
8
1
10
-176.262100
20
131.741211
30
275.122803
1
366
40
1.000000
0
TEXT
8
1
10
-177.902893
20
135.018600
30
275.122803
1
367
40
1.000000
0
TEXT
8
1
10
-175.031494
20
132.677612
30
275.122803
1
368
40
1.000000
0
TEXT
8
1
10
-174.211105
20
128.463806
30
275.122803
1
369
40
1.000000
0
TEXT
8
1
10
-172.160095
20
124.718201
30
275.122803
1
370
40
1.000000
0
TEXT
8
1
10
-168.878494
20
123.313599
30
275.122803
1
371
40
1.000000
0
TEXT
8
1
10
-166.007095
20
120.972603
30
275.122803
1
372
40
1.000000
0
TEXT
8
1
10
-163.956100
20
116.758804
30
275.122803
1
373
40
1.000000
0
TEXT
8
1
10
-162.725494
20
112.544998
30
275.122803
1
374
40
1.000000
0
TEXT
8
1
10
-162.315292
20
107.863007
30
275.122803
1
375
40
1.000000
0
TEXT
8
1
10
-162.315292
20
103.181000
30
275.122803
1
376
40
1.000000
0
TEXT
8
1
10
-162.725494
20
98.499001
30
275.122803
1
377
40
1.000000
0
TEXT
8
1
10
-163.956100
20
93.817001
30
275.122803
1
378
40
1.000000
0
TEXT
8
1
10
-165.186707
20
89.603203
30
275.122803
1
379
40
1.000000
0
TEXT
8
1
10
-166.827499
20
91.007797
30
275.122803
1
380
40
1.000000
0
TEXT
8
1
10
-167.647903
20
92.880600
30
275.122803
1
381
40
1.000000
0
TEXT
8
1
10
-166.007095
20
92.880600
30
275.122803
1
382
40
1.000000
0
TEXT
8
1
10
-166.827499
20
95.221603
30
275.122803
1
383
40
1.000000
0
TEXT
8
1
10
-165.596893
20
95.221603
30
275.122803
1
384
40
1.000000
0
TEXT
8
1
10
-165.186707
20
97.562599
30
275.122803
1
385
40
1.000000
0
TEXT
8
1
10
-166.417297
20
97.094398
30
275.122803
1
386
40
1.000000
0
TEXT
8
1
10
-166.007095
20
99.435402
30
275.122803
1
387
40
1.000000
0
TEXT
8
1
10
-164.776505
20
99.435402
30
275.122803
1
388
40
1.000000
0
TEXT
8
1
10
-164.776505
20
101.776398
30
275.122803
1
389
40
1.000000
0
TEXT
8
1
10
-166.007095
20
101.776398
30
275.122803
1
390
40
1.000000
0
TEXT
8
1
10
-166.007095
20
103.649200
30
275.122803
1
391
40
1.000000
0
TEXT
8
1
10
-165.186707
20
103.649200
30
275.122803
1
392
40
1.000000
0
TEXT
8
1
10
-165.186707
20
105.990204
30
275.122803
1
393
40
1.000000
0
TEXT
8
1
10
-166.007095
20
105.522003
30
275.122803
1
394
40
1.000000
0
TEXT
8
1
10
-167.647903
20
104.117401
30
275.122803
1
395
40
1.000000
0
TEXT
8
1
10
-168.878494
20
103.181000
30
275.122803
1
396
40
1.000000
0
TEXT
8
1
10
-170.929504
20
102.244598
30
275.122803
1
397
40
1.000000
0
TEXT
8
1
10
-172.570297
20
101.776398
30
275.122803
1
398
40
1.000000
0
TEXT
8
1
10
-174.211105
20
101.308197
30
275.122803
1
399
40
1.000000
0
TEXT
8
1
10
-175.851898
20
102.712799
30
275.122803
1
400
40
1.000000
0
TEXT
8
1
10
-175.851898
20
101.308197
30
275.122803
1
401
40
1.000000
0
TEXT
8
1
10
-175.851898
20
99.435402
30
275.122803
1
402
40
1.000000
0
TEXT
8
1
10
-174.211105
20
99.435402
30
275.122803
1
403
40
1.000000
0
TEXT
8
1
10
-173.390701
20
99.903603
30
275.122803
1
404
40
1.000000
0
TEXT
8
1
10
-172.570297
20
99.435402
30
275.122803
1
405
40
1.000000
0
TEXT
8
1
10
-172.570297
20
98.030800
30
275.122803
1
406
40
1.000000
0
TEXT
8
1
10
-170.519302
20
99.435402
30
275.122803
1
407
40
1.000000
0
TEXT
8
1
10
-169.288696
20
98.967201
30
275.122803
1
408
40
1.000000
0
TEXT
8
1
10
-168.468292
20
97.094398
30
275.122803
1
409
40
1.000000
0
TEXT
8
1
10
-168.468292
20
94.753403
30
275.122803
1
410
40
1.000000
0
TEXT
8
1
10
-168.468292
20
92.412399
30
275.122803
1
411
40
1.000000
0
TEXT
8
1
10
-169.288696
20
90.539597
30
275.122803
1
412
40
1.000000
0
TEXT
8
1
10
-170.929504
20
90.539597
30
275.122803
1
413
40
1.000000
0
TEXT
8
1
10
-172.570297
20
90.539597
30
275.122803
1
414
40
1.000000
0
TEXT
8
1
10
-173.390701
20
91.944199
30
275.122803
1
415
40
1.000000
0
TEXT
8
1
10
-172.160095
20
96.158005
30
275.122803
1
416
40
1.000000
0
TEXT
8
1
10
-172.570297
20
93.817001
30
275.122803
1
417
40
1.000000
0
TEXT
8
1
10
-174.621292
20
90.539597
30
275.122803
1
418
40
1.000000
0
TEXT
8
1
10
-176.262100
20
90.539597
30
275.122803
1
419
40
1.000000
0
TEXT
8
1
10
-176.262100
20
89.135002
30
275.122803
1
420
40
1.000000
0
TEXT
8
1
10
-177.902893
20
89.135002
30
275.122803
1
421
40
1.000000
0
TEXT
8
1
10
-177.902893
20
90.539597
30
275.122803
1
422
40
1.000000
0
TEXT
8
1
10
-179.543701
20
90.539597
30
275.122803
1
423
40
1.000000
0
TEXT
8
1
10
-179.543701
20
89.135002
30
275.122803
1
424
40
1.000000
0
TEXT
8
1
10
-181.184494
20
90.539597
30
275.122803
1
425
40
1.000000
0
TEXT
8
1
10
-183.235504
20
90.539597
30
275.122803
1
426
40
1.000000
0
TEXT
8
1
10
-182.004898
20
91.944199
30
275.122803
1
427
40
1.000000
0
TEXT
8
1
10
-182.825302
20
93.817001
30
275.122803
1
428
40
1.000000
0
TEXT
8
1
10
-182.825302
20
96.158005
30
275.122803
1
429
40
1.000000
0
TEXT
8
1
10
-182.825302
20
98.499001
30
275.122803
1
430
40
1.000000
0
TEXT
8
1
10
-181.184494
20
99.435402
30
275.122803
1
431
40
1.000000
0
TEXT
8
1
10
-182.004898
20
99.903603
30
275.122803
1
432
40
1.000000
0
TEXT
8
1
10
-182.825302
20
99.435402
30
275.122803
1
433
40
1.000000
0
TEXT
8
1
10
-184.466095
20
99.435402
30
275.122803
1
434
40
1.000000
0
TEXT
8
1
10
-185.696701
20
99.435402
30
275.122803
1
435
40
1.000000
0
TEXT
8
1
10
-186.927307
20
98.030800
30
275.122803
1
436
40
1.000000
0
TEXT
8
1
10
-186.927307
20
95.221603
30
275.122803
1
437
40
1.000000
0
TEXT
8
1
10
-186.927307
20
92.880600
30
275.122803
1
438
40
1.000000
0
TEXT
8
1
10
-186.106903
20
91.007797
30
275.122803
1
439
40
1.000000
0
TEXT
8
1
10
-184.466095
20
90.539597
30
275.122803
1
440
40
1.000000
0
TEXT
8
1
10
-184.466095
20
88.666801
30
275.122803
1
441
40
1.000000
0
TEXT
8
1
10
-182.825302
20
88.666801
30
275.122803
1
442
40
1.000000
0
TEXT
8
1
10
-181.184494
20
88.198601
30
275.122803
1
443
40
1.000000
0
TEXT
8
1
10
-179.543701
20
87.730400
30
275.122803
1
444
40
1.000000
0
TEXT
8
1
10
-177.902893
20
87.730400
30
275.122803
1
445
40
1.000000
0
TEXT
8
1
10
-176.262100
20
87.730400
30
275.122803
1
446
40
1.000000
0
TEXT
8
1
10
-174.211105
20
88.198601
30
275.122803
1
447
40
1.000000
0
TEXT
8
1
10
-172.570297
20
88.198601
30
275.122803
1
448
40
1.000000
0
TEXT
8
1
10
-170.929504
20
88.666801
30
275.122803
1
449
40
1.000000
0
TEXT
8
1
10
-169.288696
20
89.135002
30
275.122803
1
450
40
1.000000
0
TEXT
8
1
10
-168.468292
20
91.007797
30
275.122803
1
451
40
1.000000
0
TEXT
8
1
10
-167.647903
20
89.135002
30
275.122803
1
452
40
1.000000
0
TEXT
8
1
10
-168.878494
20
87.730400
30
275.122803
1
453
40
1.000000
0
TEXT
8
1
10
-170.519302
20
87.262199
30
275.122803
1
454
40
1.000000
0
TEXT
8
1
10
-172.570297
20
86.793999
30
275.122803
1
455
40
1.000000
0
TEXT
8
1
10
-174.211105
20
86.793999
30
275.122803
1
456
40
1.000000
0
TEXT
8
1
10
-175.851898
20
86.325806
30
275.122803
1
457
40
1.000000
0
TEXT
8
1
10
-177.492706
20
86.325806
30
275.122803
1
458
40
1.000000
0
TEXT
8
1
10
-179.133499
20
86.325806
30
275.122803
1
459
40
1.000000
0
TEXT
8
1
10
-180.774292
20
86.793999
30
275.122803
1
460
40
1.000000
0
TEXT
8
1
10
-182.415100
20
86.793999
30
275.122803
1
461
40
1.000000
0
TEXT
8
1
10
-184.466095
20
87.262199
30
275.122803
1
462
40
1.000000
0
TEXT
8
1
10
-186.106903
20
87.730400
30
275.122803
1
463
40
1.000000
0
TEXT
8
1
10
-186.106903
20
89.603203
30
275.122803
1
464
40
1.000000
0
TEXT
8
1
10
-187.337494
20
89.135002
30
275.122803
1
465
40
1.000000
0
TEXT
8
1
10
-186.927307
20
91.007797
30
275.122803
1
466
40
1.000000
0
TEXT
8
1
10
-188.157898
20
91.007797
30
275.122803
1
467
40
1.000000
0
TEXT
8
1
10
-187.747696
20
93.348801
30
275.122803
1
468
40
1.000000
0
TEXT
8
1
10
-188.978302
20
93.348801
30
275.122803
1
469
40
1.000000
0
TEXT
8
1
10
-188.157898
20
95.221603
30
275.122803
1
470
40
1.000000
0
TEXT
8
1
10
-189.798706
20
95.221603
30
275.122803
1
471
40
1.000000
0
TEXT
8
1
10
-190.208893
20
97.562599
30
275.122803
1
472
40
1.000000
0
TEXT
8
1
10
-188.568100
20
97.562599
30
275.122803
1
473
40
1.000000
0
TEXT
8
1
10
-188.978302
20
99.435402
30
275.122803
1
474
40
1.000000
0
TEXT
8
1
10
-190.208893
20
99.435402
30
275.122803
1
475
40
1.000000
0
TEXT
8
1
10
-190.208893
20
101.776398
30
275.122803
1
476
40
1.000000
0
TEXT
8
1
10
-189.388504
20
101.308197
30
275.122803
1
477
40
1.000000
0
TEXT
8
1
10
-188.978302
20
103.649200
30
275.122803
1
478
40
1.000000
0
TEXT
8
1
10
-189.798706
20
104.117401
30
275.122803
1
479
40
1.000000
0
TEXT
8
1
10
-189.798706
20
105.990204
30
275.122803
1
480
40
1.000000
0
TEXT
8
1
10
-188.978302
20
105.522003
30
275.122803
1
481
40
1.000000
0
TEXT
8
1
10
-187.747696
20
104.117401
30
275.122803
1
482
40
1.000000
0
TEXT
8
1
10
-186.106903
20
103.181000
30
275.122803
1
483
40
1.000000
0
TEXT
8
1
10
-184.466095
20
102.244598
30
275.122803
1
484
40
1.000000
0
TEXT
8
1
10
-182.415100
20
101.776398
30
275.122803
1
485
40
1.000000
0
TEXT
8
1
10
-181.184494
20
101.308197
30
275.122803
1
486
40
1.000000
0
TEXT
8
1
10
-179.543701
20
102.712799
30
275.122803
1
487
40
1.000000
0
TEXT
8
1
10
-179.543701
20
101.308197
30
275.122803
1
488
40
1.000000
0
TEXT
8
1
10
-179.133499
20
99.435402
30
275.122803
1
489
40
1.000000
0
TEXT
8
1
10
-177.492706
20
99.435402
30
275.122803
1
490
40
1.000000
0
TEXT
8
1
10
-177.492706
20
101.308197
30
275.122803
1
491
40
1.000000
0
TEXT
8
1
10
-177.492706
20
103.181000
30
275.122803
1
492
40
1.000000
0
TEXT
8
1
10
-178.313095
20
105.990204
30
275.122803
1
493
40
1.000000
0
TEXT
8
1
10
-176.672302
20
105.522003
30
275.122803
1
494
40
1.000000
0
TEXT
8
1
10
-175.851898
20
106.926605
30
275.122803
1
495
40
1.000000
0
TEXT
8
1
10
-173.800903
20
108.799400
30
275.122803
1
496
40
1.000000
0
TEXT
8
1
10
-171.749893
20
107.394806
30
275.122803
1
497
40
1.000000
0
TEXT
8
1
10
-169.698898
20
107.863007
30
275.122803
1
498
40
1.000000
0
TEXT
8
1
10
-170.929504
20
111.608597
30
275.122803
1
499
40
1.000000
0
TEXT
8
1
10
-168.468292
20
110.204002
30
275.122803
1
500
40
1.000000
0
TEXT
8
1
10
-168.468292
20
113.013199
30
275.122803
1
501
40
1.000000
0
TEXT
8
1
10
-168.878494
20
115.822403
30
275.122803
1
502
40
1.000000
0
TEXT
8
1
10
-170.519302
20
117.695206
30
275.122803
1
503
40
1.000000
0
TEXT
8
1
10
-172.570297
20
117.695206
30
275.122803
1
504
40
1.000000
0
TEXT
8
1
10
-174.211105
20
116.290604
30
275.122803
1
505
40
1.000000
0
TEXT
8
1
10
-175.031494
20
113.481400
30
275.122803
1
506
40
1.000000
0
TEXT
8
1
10
-172.980499
20
112.544998
30
275.122803
1
507
40
1.000000
0
TEXT
8
1
10
-174.621292
20
111.140396
30
275.122803
1
508
40
1.000000
0
TEXT
8
1
10
-175.851898
20
108.799400
30
275.122803
1
509
40
1.000000
0
TEXT
8
1
10
-177.082504
20
110.204002
30
275.122803
1
510
40
1.000000
0
TEXT
8
1
10
-178.723297
20
109.735802
30
275.122803
1
511
40
1.000000
0
TEXT
8
1
10
-179.133499
20
107.863007
30
275.122803
1
512
40
1.000000
0
TEXT
8
1
10
-180.774292
20
108.799400
30
275.122803
1
513
40
1.000000
0
TEXT
8
1
10
-182.004898
20
106.458405
30
275.122803
1
514
40
1.000000
0
TEXT
8
1
10
-184.055893
20
106.458405
30
275.122803
1
515
40
1.000000
0
TEXT
8
1
10
-185.696701
20
107.863007
30
275.122803
1
516
40
1.000000
0
TEXT
8
1
10
-184.466095
20
110.672195
30
275.122803
1
517
40
1.000000
0
TEXT
8
1
10
-186.517105
20
110.672195
30
275.122803
1
518
40
1.000000
0
TEXT
8
1
10
-186.106903
20
113.013199
30
275.122803
1
519
40
1.000000
0
TEXT
8
1
10
-184.876297
20
115.354202
30
275.122803
1
520
40
1.000000
0
TEXT
8
1
10
-182.825302
20
115.354202
30
275.122803
1
521
40
1.000000
0
TEXT
8
1
10
-180.774292
20
113.949600
30
275.122803
1
522
40
1.000000
0
TEXT
8
1
10
-182.415100
20
111.140396
30
275.122803
1
523
40
1.000000
0
TEXT
8
1
10
-179.953903
20
111.608597
30
275.122803
1
524
40
1.000000
0
TEXT
8
1
10
-199.233307
20
-3.822998
30
275.122803
1
GE Pumpkin Stack
40
2.000000
0
ENDSEC
0
EOF
